<svg xmlns="http://www.w3.org/2000/svg" width="512" height="512" viewBox="0 0 512 512" version="1.1"><path d="M 51 105.500 C 53.987 108.525, 56.657 111, 56.932 111 C 57.207 111, 54.987 108.525, 52 105.500 C 49.013 102.475, 46.343 100, 46.068 100 C 45.793 100, 48.013 102.475, 51 105.500 M 203.437 139.250 L 200.500 142.500 203.750 139.563 C 206.779 136.825, 207.460 136, 206.687 136 C 206.515 136, 205.052 137.463, 203.437 139.250 M 254.500 154 C 257.209 156.750, 259.650 159, 259.925 159 C 260.200 159, 258.209 156.750, 255.500 154 C 252.791 151.250, 250.350 149, 250.075 149 C 249.800 149, 251.791 151.250, 254.500 154 M 67.500 165 C 68.600 165.473, 70.400 165.846, 71.500 165.830 C 73.108 165.806, 73.010 165.644, 71 165 C 67.581 163.905, 64.952 163.905, 67.500 165 M 183.430 181.009 C 175.691 188.704, 169.622 195, 169.943 195 C 170.264 195, 176.815 188.700, 184.500 181 C 192.185 173.300, 198.254 167.004, 197.987 167.009 C 197.719 167.014, 191.168 173.314, 183.430 181.009 M 301.971 173.750 L 295.500 180.500 302.250 174.029 C 308.520 168.018, 309.457 167, 308.721 167 C 308.568 167, 305.530 170.037, 301.971 173.750 M 143 176.500 C 146.543 180.075, 149.667 183, 149.942 183 C 150.217 183, 147.543 180.075, 144 176.500 C 140.457 172.925, 137.333 170, 137.058 170 C 136.783 170, 139.457 172.925, 143 176.500 M 163.500 179 C 161.919 180.650, 161.076 182, 161.626 182 C 162.176 182, 163.919 180.650, 165.500 179 C 167.081 177.350, 167.924 176, 167.374 176 C 166.824 176, 165.081 177.350, 163.500 179 M 126.500 182 C 129.209 184.750, 131.650 187, 131.925 187 C 132.200 187, 130.209 184.750, 127.500 182 C 124.791 179.250, 122.350 177, 122.075 177 C 121.800 177, 123.791 179.250, 126.500 182 M 263 183.313 C 263 183.485, 264.462 184.948, 266.250 186.563 L 269.500 189.500 266.563 186.250 C 263.825 183.221, 263 182.540, 263 183.313 M 317.437 213.250 L 314.500 216.500 317.750 213.563 C 319.538 211.948, 321 210.485, 321 210.313 C 321 209.540, 320.175 210.221, 317.437 213.250 M 324.398 227.250 C 317.392 235.331, 317.198 236.431, 324 229.500 C 326.429 227.025, 327.951 225, 327.383 225 C 326.814 225, 325.471 226.012, 324.398 227.250 M 362.966 244.750 L 357.500 250.500 363.250 245.034 C 368.592 239.956, 369.458 239, 368.716 239 C 368.560 239, 365.972 241.588, 362.966 244.750 M 377.462 252.250 L 372.500 257.500 377.750 252.538 C 380.637 249.808, 383 247.446, 383 247.288 C 383 246.541, 382.074 247.372, 377.462 252.250 M 253.958 287.250 C 258.102 291.665, 259 292.459, 259 291.708 C 259 291.548, 256.863 289.410, 254.250 286.958 L 249.500 282.500 253.958 287.250 M 376.479 298.250 L 367.500 307.500 376.750 298.521 C 385.341 290.181, 386.455 289, 385.729 289 C 385.580 289, 381.418 293.163, 376.479 298.250 M 103.453 298.250 L 99.500 302.500 103.750 298.547 C 106.088 296.373, 108 294.460, 108 294.297 C 108 293.540, 107.129 294.298, 103.453 298.250 M 395.971 300.750 L 389.500 307.500 396.250 301.029 C 399.962 297.470, 403 294.432, 403 294.279 C 403 293.543, 401.982 294.480, 395.971 300.750 M 245 299.313 C 245 299.485, 246.463 300.948, 248.250 302.563 L 251.500 305.500 248.563 302.250 C 245.825 299.221, 245 298.540, 245 299.313 M 95.453 307.250 L 91.500 311.500 95.750 307.547 C 98.088 305.373, 100 303.460, 100 303.297 C 100 302.540, 99.129 303.298, 95.453 307.250 M 114.946 308.750 L 111.500 312.500 115.250 309.054 C 118.740 305.846, 119.460 305, 118.696 305 C 118.529 305, 116.842 306.688, 114.946 308.750 M 20.469 357.250 L 14.500 363.500 20.750 357.531 C 24.188 354.249, 27 351.436, 27 351.281 C 27 350.542, 26.013 351.444, 20.469 357.250 M 37.500 402 C 39.648 404.200, 41.631 406, 41.906 406 C 42.181 406, 40.648 404.200, 38.500 402 C 36.352 399.800, 34.369 398, 34.094 398 C 33.819 398, 35.352 399.800, 37.500 402 M 200.282 412.209 L 187.073 425.417 184.287 422.987 L 181.500 420.556 184.259 423.515 L 187.018 426.473 200.755 412.736 C 208.310 405.181, 214.266 399, 213.991 399 C 213.716 399, 207.547 404.944, 200.282 412.209 M 211.583 422.758 L 203.667 431.500 212.333 423.022 C 217.100 418.359, 221 414.422, 221 414.272 C 221 412.908, 218.298 415.343, 211.583 422.758 M 167.958 428.250 C 170.410 430.863, 172.548 433, 172.708 433 C 173.459 433, 172.665 432.102, 168.250 427.958 L 163.500 423.500 167.958 428.250 M 426.500 459 C 428.648 461.200, 430.631 463, 430.906 463 C 431.181 463, 429.648 461.200, 427.500 459 C 425.352 456.800, 423.369 455, 423.094 455 C 422.819 455, 424.352 456.800, 426.500 459 M 152.982 483.750 L 142.500 494.500 153.250 484.018 C 159.162 478.253, 164 473.415, 164 473.268 C 164 472.546, 162.718 473.765, 152.982 483.750 M 102 487.500 C 104.987 490.525, 107.657 493, 107.932 493 C 108.207 493, 105.987 490.525, 103 487.500 C 100.013 484.475, 97.343 482, 97.068 482 C 96.793 482, 99.013 484.475, 102 487.500 M 162.085 496.251 L 154.669 504.500 162.835 496.523 C 167.326 492.136, 171 488.424, 171 488.273 C 171 486.906, 168.365 489.264, 162.085 496.251" stroke="none" fill="#1054a4" fill-rule="evenodd"/><path d="M 83.802 0.532 C 83.474 0.860, 81.809 1.168, 80.103 1.216 C 78.396 1.265, 77 1.734, 77 2.259 C 77 2.784, 76.309 2.949, 75.464 2.625 C 73.238 1.770, 64.865 5.214, 61.175 8.502 C 57.677 11.619, 55.716 17.019, 56.683 20.872 C 57.607 24.555, 59.603 28.064, 60.348 27.318 C 60.707 26.960, 61 27.288, 61 28.048 C 61 28.807, 71.012 39.434, 83.250 51.662 C 95.488 63.891, 106.136 74.654, 106.913 75.581 C 112.853 82.660, 111.349 100.282, 104.318 106 C 96.480 112.373, 83.355 112.664, 75.197 106.645 C 70.943 103.507, 56.329 89.343, 41.719 74.199 C 27.095 59.041, 23.916 56.809, 17.425 57.145 C 14.478 57.297, 11.938 58.062, 10.886 59.114 C 9.940 60.060, 8.944 60.611, 8.671 60.338 C 7.546 59.212, 2.954 69.068, 1.591 75.538 C -0.091 83.514, 0.031 108.898, 1.770 113 C 2.353 114.375, 3.824 118.763, 5.040 122.750 C 6.256 126.737, 7.549 130, 7.913 130 C 8.277 130, 8.638 130.841, 8.715 131.868 C 8.859 133.778, 14.398 143.440, 16.715 145.821 C 17.422 146.548, 18 147.479, 18 147.890 C 18 149.242, 32.388 162.850, 38 166.807 C 43.781 170.882, 55.103 176.745, 58.500 177.422 C 59.600 177.641, 62.525 178.505, 65 179.341 C 72.829 181.988, 80.157 182.850, 92 182.520 C 103.502 182.199, 107.310 181.730, 112 180.055 C 113.375 179.564, 115.696 178.903, 117.157 178.586 C 118.619 178.268, 120.435 177.770, 121.193 177.479 C 122.048 177.151, 127.219 181.875, 134.804 189.913 L 147.036 202.876 145.905 207.688 C 144.116 215.292, 143.947 216.817, 143.548 229 C 143.248 238.159, 142.622 242.128, 140.471 248.500 C 138.986 252.900, 137.035 257.335, 136.135 258.355 C 135.236 259.375, 134.611 260.500, 134.746 260.855 C 135.011 261.549, 126.210 273.945, 120.801 280.499 C 118.985 282.698, 109.175 292.702, 99 302.729 C 83.747 317.760, 80.149 320.833, 78.500 320.239 C 75.481 319.150, 61.030 319.357, 60.214 320.500 C 59.821 321.050, 58.904 321.624, 58.176 321.775 C 55.368 322.357, 50.136 327.201, 30.728 347.188 C 19.679 358.567, 9.796 369.592, 8.765 371.688 C 6.373 376.556, 6.193 386.124, 8.392 391.515 C 9.619 394.524, 24.041 409.436, 65.938 451.015 C 96.688 481.532, 122.457 506.987, 123.202 507.583 C 123.948 508.178, 126.580 509.438, 129.052 510.382 C 133.976 512.263, 143.787 511.962, 145.067 509.892 C 145.457 509.260, 146.280 509.055, 146.895 509.435 C 147.511 509.816, 148.284 509.423, 148.614 508.563 C 148.944 507.704, 149.849 507, 150.625 507 C 151.930 507, 160.065 498.910, 166.463 491.250 C 167.956 489.462, 169.736 488, 170.419 488 C 171.935 488, 197 462.631, 197 461.096 C 197 460.493, 196.962 459.713, 196.915 459.362 C 196.868 459.011, 197.420 458.359, 198.142 457.912 C 200.089 456.709, 199.973 441.880, 197.997 439.488 C 196.993 438.272, 196.868 437.551, 197.616 437.299 C 198.230 437.092, 203.388 431.765, 209.078 425.461 C 214.769 419.158, 219.915 414, 220.515 414 C 221.115 414, 226.982 408.552, 233.553 401.892 C 247.498 387.760, 256.452 379.785, 257.358 380.691 C 257.711 381.044, 258 380.895, 258 380.360 C 258 379.108, 276.361 379.882, 278.572 381.226 C 280.380 382.326, 293.580 381.860, 299.091 380.501 C 302.166 379.743, 307.738 377.723, 311.475 376.012 L 318.268 372.900 326.995 381.440 C 334.973 389.247, 335.627 390.175, 334.604 392.240 C 333 395.482, 330.912 401.667, 331.087 402.657 C 331.170 403.121, 331.149 403.725, 331.042 404 C 330.330 405.826, 329.891 409.698, 329.445 418.074 C 328.984 426.732, 329.136 427.903, 331.040 430.324 C 332.591 432.295, 334.048 433, 336.573 433 C 338.458 433, 340 432.523, 340 431.941 C 340 431.359, 340.415 431.138, 340.922 431.451 C 342.846 432.641, 344.649 426.346, 344.575 418.698 C 344.534 414.464, 344.810 411, 345.188 411 C 345.566 411, 345.900 410.212, 345.929 409.250 C 346.062 404.851, 346.908 401.079, 348.415 398.165 C 349.315 396.424, 349.799 395, 349.490 395 C 349.182 395, 349.482 393.988, 350.158 392.750 C 350.834 391.512, 351.494 389.198, 351.626 387.607 C 351.841 385.009, 345.669 378.511, 290.996 323.775 C 253.950 286.687, 230.297 262.281, 230.563 261.418 C 230.803 260.638, 231.299 259.212, 231.664 258.250 C 232.029 257.288, 232.405 256.275, 232.500 256 C 232.595 255.725, 232.934 254.825, 233.254 254 C 234.517 250.742, 237.003 241.348, 237.297 238.724 C 237.468 237.197, 237.809 235.851, 238.054 235.732 C 238.299 235.614, 240.117 236.751, 242.094 238.258 C 244.071 239.766, 245.977 241, 246.329 241 C 246.682 241, 249.217 242.383, 251.963 244.072 C 254.710 245.762, 257.416 246.861, 257.978 246.513 C 258.540 246.166, 259 246.322, 259 246.861 C 259 248.132, 268.641 251.340, 269.978 250.514 C 270.540 250.166, 271 250.353, 271 250.930 C 271 251.506, 272.012 251.947, 273.250 251.909 C 274.488 251.871, 278.751 252.165, 282.725 252.563 C 287.966 253.087, 290.366 252.941, 291.463 252.030 C 293.267 250.534, 293.548 251.134, 294.407 258.332 C 294.949 262.872, 297.569 269.087, 299.256 269.835 C 299.672 270.020, 299.803 270.510, 299.546 270.925 C 297.984 273.454, 315.415 285.875, 320 285.500 C 320.825 285.432, 322.043 285.781, 322.706 286.275 C 323.370 286.768, 324.283 286.943, 324.735 286.664 C 325.188 286.384, 325.557 290.058, 325.557 294.828 C 325.556 302.313, 325.935 304.253, 328.325 309 C 333.579 319.436, 342.777 325.807, 354.125 326.869 L 360.863 327.500 373.244 339.622 C 385.338 351.464, 386.895 352.438, 391 350.737 C 391.825 350.395, 396.778 348.821, 402.007 347.238 C 410.309 344.725, 412.908 344.386, 422.507 344.564 C 434.405 344.785, 444.384 346.244, 446.605 348.087 C 447.372 348.724, 448 348.954, 448 348.599 C 448 348.244, 449.105 348.678, 450.456 349.563 C 451.807 350.448, 453.343 350.906, 453.871 350.580 C 454.398 350.254, 454.980 350.407, 455.165 350.919 C 455.349 351.431, 456.157 351.996, 456.961 352.175 C 458.607 352.541, 459.180 352.912, 463.750 356.574 C 465.538 358.006, 467 358.897, 467 358.553 C 467 358.209, 470.375 361.292, 474.500 365.403 C 478.625 369.515, 482 373.086, 482 373.339 C 482 373.864, 488.475 383.865, 490.022 385.730 C 490.583 386.407, 490.944 387.082, 490.824 387.230 C 490.704 387.379, 491.880 391.503, 493.438 396.395 C 495.767 403.709, 496.286 407.175, 496.359 415.895 C 496.453 427.148, 495.481 435.898, 493.967 437.426 C 492.912 438.489, 488.602 434.505, 465.222 410.854 C 451.486 396.959, 441.328 388.555, 438.182 388.485 C 437.807 388.476, 436.939 388.113, 436.254 387.678 C 434.350 386.469, 431.131 385.895, 423.938 385.479 C 417.725 385.121, 416.134 385.449, 403.761 389.639 C 402.805 389.962, 402.269 390.626, 402.570 391.114 C 402.872 391.601, 402.575 392, 401.912 392 C 400.127 392, 391.889 399.012, 392.505 400.007 C 392.795 400.477, 392.574 401.145, 392.014 401.492 C 389.081 403.304, 384.329 420.300, 385.581 424.500 C 385.745 425.050, 386.118 427.412, 386.410 429.750 C 387.641 439.600, 391.007 444.100, 415.682 468.884 C 428.507 481.764, 439 492.685, 439 493.152 C 439 493.618, 437.950 494, 436.667 494 C 435.383 494, 434.027 494.306, 433.653 494.681 C 433.278 495.055, 427.691 495.543, 421.236 495.766 C 411.694 496.096, 408.105 495.795, 402.039 494.157 C 397.935 493.049, 394.223 492.362, 393.789 492.630 C 393.355 492.899, 393 492.685, 393 492.157 C 393 491.068, 387.008 488.723, 386.985 489.802 C 386.976 490.186, 386.639 490, 386.235 489.390 C 385.831 488.779, 383.925 487.476, 382 486.495 C 378.174 484.544, 374.997 482.229, 369.317 477.250 C 367.278 475.462, 365.221 474, 364.746 474 C 364.271 474, 364.162 473.547, 364.504 472.993 C 364.847 472.439, 364.480 471.738, 363.689 471.434 C 362.898 471.131, 360.507 468.321, 358.376 465.191 C 356.244 462.061, 354.163 459.350, 353.750 459.167 C 353.337 458.983, 353 458.136, 353 457.284 C 353 452.587, 344.153 450.346, 340.189 454.039 C 336.675 457.312, 337.333 461.568, 342.504 469.014 C 344.981 472.581, 348.147 477.204, 349.540 479.287 C 350.932 481.370, 352.517 482.799, 353.061 482.463 C 353.605 482.126, 353.926 482.280, 353.775 482.804 C 353.530 483.652, 355.655 485.879, 362.615 492.070 C 366.226 495.280, 379.253 502.961, 380.150 502.407 C 380.617 502.118, 381 502.311, 381 502.836 C 381 504.211, 399.345 509.801, 407 510.759 C 417.995 512.135, 429.590 511.349, 441.250 508.437 C 441.663 508.334, 442.643 508.194, 443.429 508.125 C 444.214 508.056, 445.471 507.437, 446.221 506.750 C 446.971 506.063, 448.443 505.015, 449.492 504.423 C 455.125 501.242, 457.085 492.921, 453.727 486.448 C 452.886 484.826, 447.545 479, 441.858 473.500 C 422.070 454.363, 406.930 438.472, 404.224 434 C 401.943 430.232, 401.501 428.361, 401.509 422.500 C 401.522 412.632, 404.363 407.224, 411.348 403.775 C 418.173 400.404, 423.764 399.653, 428.800 401.429 C 431.011 402.209, 433.085 402.582, 433.410 402.257 C 433.734 401.932, 434 402.192, 434 402.833 C 434 403.475, 434.500 404, 435.112 404 C 436.435 404, 444.444 411.635, 466.847 434.255 C 475.973 443.470, 485.150 451.855, 487.239 452.888 C 492.232 455.359, 499.441 454.874, 502.658 451.852 C 505.139 449.521, 507.990 444.015, 510.091 437.500 C 511.475 433.207, 511.957 409.426, 510.800 402.500 C 510.432 400.300, 509.447 396.587, 508.610 394.250 C 507.773 391.912, 507.349 390, 507.667 390 C 507.985 390, 507.744 389.396, 507.131 388.658 C 506.519 387.920, 506.313 387.020, 506.675 386.658 C 507.037 386.296, 506.904 386, 506.379 386 C 505.855 386, 505.362 385.149, 505.283 384.110 C 505.205 383.070, 503.647 379.664, 501.820 376.540 C 499.994 373.416, 497.600 369.248, 496.500 367.277 C 492.855 360.746, 478.579 347.572, 468.609 341.540 C 463.440 338.413, 458.601 335.730, 457.855 335.578 C 457.110 335.426, 455.825 335.044, 455 334.728 C 444.479 330.700, 437.936 329.567, 425 329.534 C 411.325 329.500, 401.936 330.430, 398.750 332.134 C 397.788 332.649, 397 332.823, 397 332.522 C 397 332.220, 395.472 332.611, 393.605 333.392 L 390.210 334.810 383.208 327.862 L 376.205 320.915 397.602 299.386 C 409.371 287.544, 419 277.246, 419 276.500 C 419 275.753, 419.660 274.483, 420.467 273.675 C 421.978 272.165, 422.511 270.058, 423.523 261.603 C 424.126 256.566, 422.311 247, 420.752 247 C 420.273 247, 420.150 246.566, 420.477 246.036 C 420.805 245.507, 420.194 244.194, 419.120 243.120 C 418.046 242.046, 417.354 240.979, 417.584 240.749 C 418.290 240.043, 411.736 234.629, 407.301 232.254 C 403.167 230.040, 397.506 228.595, 393.417 228.709 C 391.637 228.759, 391.330 228.167, 391.309 224.634 C 391.295 222.360, 391.020 218.854, 390.699 216.842 C 390.057 212.819, 385.278 203, 383.963 203 C 383.507 203, 382.865 202.151, 382.536 201.113 C 381.839 198.919, 370.560 191.059, 367.844 190.875 C 365.671 190.728, 365.034 190.565, 362.899 189.614 C 362.019 189.222, 360.669 189.035, 359.899 189.200 C 359.050 189.382, 358.683 188.911, 358.965 188 C 361.045 181.287, 358.767 164.712, 355.378 161.899 C 354.632 161.280, 354.230 160.436, 354.485 160.025 C 355.035 159.134, 348.633 152.301, 344.701 149.582 C 341.591 147.433, 332.383 144.110, 329.430 144.072 C 321.881 143.975, 321.779 143.897, 321.461 138 C 321.085 131.016, 320.870 130, 319.774 130 C 319.284 130, 319.102 129.644, 319.371 129.210 C 319.952 128.268, 317.125 122.083, 315.211 120.110 C 314.469 119.345, 313.174 117.669, 312.333 116.385 C 310.604 113.746, 301.513 107.821, 300.597 108.736 C 300.269 109.064, 300 108.808, 300 108.167 C 300 107.525, 299.663 107.053, 299.250 107.118 C 298.837 107.184, 298.275 107.149, 298 107.042 C 294.031 105.495, 283.821 105.023, 279 106.165 C 271.369 107.971, 264.637 112.836, 251.944 125.718 L 239.739 138.104 237.620 136.172 C 233.863 132.748, 226.400 130.094, 221.768 130.534 C 216.126 131.071, 214.787 131.373, 213 132.513 C 212.175 133.039, 211.134 133.476, 210.687 133.485 C 210.241 133.493, 207.203 136.153, 203.937 139.396 C 200.672 142.639, 198 144.742, 198 144.070 C 198 142.734, 186.739 131.327, 180.582 126.427 L 176.721 123.355 178.389 118.336 C 179.305 115.575, 180.156 111.896, 180.278 110.160 C 180.400 108.424, 180.810 107.003, 181.188 107.002 C 181.566 107.001, 181.903 106.213, 181.936 105.250 C 181.969 104.287, 182.219 98.325, 182.491 92 C 182.764 85.675, 182.719 79.825, 182.392 79 C 182.064 78.175, 181.631 75.583, 181.428 73.240 C 181.226 70.897, 180.614 68.147, 180.069 67.128 C 179.523 66.109, 178.810 63.759, 178.483 61.906 C 178.157 60.052, 177.238 57.816, 176.443 56.937 C 175.647 56.057, 175.276 55.057, 175.619 54.714 C 176.184 54.149, 170.578 43.190, 169.115 42 C 168.777 41.725, 168.050 40.780, 167.500 39.900 C 163.435 33.394, 160.703 29.981, 156.892 26.647 C 154.476 24.533, 151.150 21.598, 149.500 20.123 C 146.748 17.663, 142.445 14.696, 136 10.815 C 134.625 9.986, 130.800 8.284, 127.500 7.032 C 121.722 4.840, 120.294 4.394, 111.500 2.043 C 106.973 0.833, 84.715 -0.382, 83.802 0.532 M 90.780 15.526 C 90.626 15.665, 88.250 16.016, 85.500 16.305 C 77.480 17.149, 72.903 18.208, 73.216 19.148 C 73.376 19.628, 83.406 30.060, 95.504 42.329 C 107.602 54.598, 118.055 65.366, 118.733 66.258 C 121.299 69.632, 124.018 75.162, 123.513 75.979 C 123.224 76.447, 123.553 77.017, 124.244 77.247 C 125.103 77.533, 125.609 80.716, 125.846 87.314 C 126.155 95.949, 125.902 97.699, 123.435 103.989 C 119.744 113.395, 115.470 118.160, 107.223 122.060 C 100.947 125.029, 98.772 125.581, 90.174 126.391 C 87.344 126.657, 81.029 125.783, 77.500 124.637 C 76.950 124.459, 75.263 123.969, 73.750 123.548 C 72.237 123.127, 71 122.355, 71 121.833 C 71 121.310, 70.550 121.160, 70 121.500 C 69.450 121.840, 69 121.641, 69 121.059 C 69 120.477, 68.349 120, 67.554 120 C 65.729 120, 22 76.802, 22 74.999 C 22 74.266, 21.704 73.963, 21.342 74.325 C 20.980 74.687, 20.122 74.516, 19.435 73.946 C 18.479 73.153, 17.905 74.156, 16.996 78.204 C 14.538 89.148, 14.935 99.716, 18.406 115.788 C 19.710 121.828, 29.366 138.262, 35.194 144.360 C 36.737 145.975, 38 147.706, 38 148.207 C 38 148.708, 38.409 148.865, 38.909 148.556 C 39.409 148.247, 40.894 149.233, 42.211 150.747 C 43.527 152.261, 45.255 153.637, 46.052 153.805 C 46.848 153.973, 47.955 154.648, 48.511 155.305 C 49.067 155.962, 51.992 157.691, 55.011 159.146 C 58.030 160.601, 62.075 162.551, 64 163.479 C 68.881 165.831, 78.860 167.302, 89.681 167.265 C 99.174 167.232, 105.200 166.185, 115.500 162.782 C 123.742 160.058, 124.942 159.899, 127.374 161.200 C 128.539 161.824, 135.272 168.187, 142.336 175.340 L 155.179 188.346 157.662 185.173 C 159.028 183.428, 160.703 182, 161.385 182 C 162.068 182, 163.919 180.650, 165.500 179 C 167.081 177.350, 167.961 176, 167.455 176 C 166.949 176, 171.245 171.274, 177.002 165.498 L 187.468 154.997 174.842 142.248 C 167.898 135.237, 161.708 128.499, 161.087 127.276 C 159.829 124.798, 161.460 116, 163.178 116 C 163.695 116, 163.891 115.632, 163.613 115.183 C 163.335 114.733, 163.783 112.407, 164.608 110.013 C 167.025 102.997, 167.658 94.746, 166.971 79.228 C 166.843 76.328, 166.445 73.775, 166.087 73.554 C 165.730 73.333, 165.325 71.687, 165.189 69.896 C 165.052 68.105, 164.060 65.215, 162.984 63.474 C 161.907 61.732, 161.321 60.013, 161.680 59.653 C 162.039 59.294, 161.808 59, 161.167 59 C 160.525 59, 160.073 58.663, 160.161 58.250 C 160.500 56.679, 158.075 52.275, 154.113 47.263 C 151.851 44.401, 149.982 41.708, 149.959 41.279 C 149.937 40.851, 148.076 38.925, 145.823 37 C 143.571 35.075, 140.889 32.712, 139.864 31.750 C 138.839 30.788, 137.795 30, 137.544 30 C 137.046 30, 130.152 25.568, 128.423 24.136 C 127.831 23.646, 126.256 22.915, 124.923 22.511 C 123.590 22.108, 121.150 21.205, 119.500 20.506 C 114.158 18.242, 103.618 15.911, 97.262 15.589 C 93.851 15.415, 90.934 15.387, 90.780 15.526 M 280.546 121.736 C 278.380 122.056, 273.900 125.816, 263.751 135.836 L 249.910 149.500 264.023 162.888 L 278.135 176.277 290.346 164.388 C 299.966 155.022, 302.956 151.453, 304.445 147.566 C 307.559 139.429, 306.479 132.413, 301.318 127.251 C 295.726 121.659, 290.486 120.268, 280.546 121.736 M 213.330 152.103 C 209.686 155.861, 206.353 158.718, 205.924 158.453 C 205.495 158.188, 204.854 158.884, 204.500 160 C 204.146 161.116, 203.427 161.764, 202.903 161.440 C 202.379 161.116, 202.074 161.226, 202.225 161.685 C 202.376 162.143, 195.002 169.826, 185.838 178.759 C 176.674 187.691, 169.439 195, 169.762 195 C 170.085 195, 169.412 196.012, 168.267 197.250 C 164.907 200.881, 160.186 211.656, 159.488 217.289 C 159.133 220.155, 158.702 227.225, 158.532 233 C 158.194 244.459, 157.293 250, 155.768 250 C 155.228 250, 155.011 250.586, 155.286 251.302 C 155.561 252.019, 155.086 254.156, 154.232 256.052 C 153.377 257.949, 152.577 259.725, 152.454 260 C 152.331 260.275, 151.902 261.512, 151.499 262.750 C 151.096 263.988, 150.369 265, 149.883 265 C 149.398 265, 149.113 265.392, 149.250 265.870 C 149.572 266.989, 141.780 279.029, 136.546 285.500 C 130.190 293.359, 126.615 297.183, 109 314.970 L 92.500 331.632 109.784 348.776 C 126.325 365.183, 127.058 366.075, 126.823 369.553 C 126.658 372.014, 125.796 373.802, 124.154 375.093 C 119.061 379.099, 117.998 378.391, 95.900 356.281 C 74.786 335.155, 71.984 333.086, 67 334.939 C 65.625 335.450, 55.184 345.011, 43.797 356.184 C 22.950 376.642, 21.062 379.126, 22.379 384.374 C 22.996 386.833, 129.024 493.372, 132.940 495.468 C 138.212 498.289, 140.536 496.713, 160.667 476.653 C 171.210 466.149, 180.322 457.393, 180.917 457.194 C 181.513 456.996, 182 456.196, 182 455.417 C 182 454.637, 182.450 454, 183 454 C 183.550 454, 184 451.756, 184 449.014 L 184 444.028 161.430 421.764 C 149.017 409.519, 138.227 398.303, 137.451 396.840 C 135.658 393.455, 137.190 388.410, 140.334 387.353 C 143.506 386.286, 147 386.182, 147 387.154 C 147 387.619, 147.420 387.888, 147.932 387.750 C 148.445 387.613, 157.508 396.219, 168.073 406.875 L 187.281 426.250 208.390 405.139 C 235.654 377.873, 244.904 369, 246.062 369 C 246.578 369, 247.241 369.016, 247.536 369.036 C 247.830 369.055, 248.767 368.376, 249.616 367.527 C 250.466 366.677, 251.537 366.214, 251.995 366.497 C 252.454 366.781, 253.017 366.447, 253.247 365.756 C 253.728 364.313, 269.812 364.014, 276.500 365.324 C 287.007 367.382, 293.710 366.727, 303.186 362.716 L 306.873 361.155 264.240 318.562 L 221.608 275.969 217.554 279.843 C 215.324 281.973, 212.687 284.001, 211.694 284.348 C 209.454 285.132, 203.056 282.567, 202.843 280.801 C 202.169 275.198, 202.487 273.787, 205.016 271.140 C 206.511 269.576, 207.907 267.892, 208.118 267.398 C 208.329 266.904, 210.579 263.350, 213.119 259.500 C 215.658 255.650, 218.081 251.375, 218.503 250 C 218.924 248.625, 219.625 247.270, 220.059 246.988 C 220.493 246.706, 221.232 242.394, 221.701 237.405 C 222.751 226.247, 221.749 221.657, 216.816 215.028 C 212.124 208.722, 211.499 205.161, 214.439 201.474 C 216.127 199.358, 217.475 198.709, 220.038 198.782 C 222.967 198.865, 224.827 200.326, 234.086 209.818 C 244.238 220.225, 254.700 229, 256.957 229 C 257.531 229, 258 229.420, 258 229.933 C 258 230.798, 260.150 231.827, 262.500 232.087 C 263.050 232.147, 264.400 232.699, 265.500 233.313 C 266.600 233.927, 267.837 234.501, 268.250 234.590 C 268.663 234.678, 269.113 234.841, 269.250 234.952 C 269.518 235.167, 270.764 235.494, 275.500 236.588 C 283.367 238.406, 300 235.615, 300 232.477 C 300 231.856, 301.089 230.326, 302.420 229.075 L 304.839 226.802 302.170 223.806 C 300.701 222.158, 299.689 220.740, 299.921 220.655 C 300.223 220.544, 228.601 148.808, 225.556 146.172 C 225.347 145.991, 224.002 145.714, 222.566 145.557 C 220.477 145.327, 218.632 146.635, 213.330 152.103 M 321.216 159.525 C 314.411 161.565, 306.990 167.882, 291.642 184.703 L 288.783 187.836 300.392 199.109 C 306.776 205.309, 312 210.746, 312 211.191 C 312 211.636, 312.788 212.826, 313.750 213.836 C 315.436 215.604, 315.813 215.356, 324.038 207.086 C 328.734 202.364, 333.909 197.291, 335.538 195.813 C 339.777 191.967, 340.875 190.490, 343.036 185.731 C 345.698 179.866, 345.477 176.275, 342.031 169.377 C 339.499 164.312, 338.401 163.163, 334.584 161.589 C 332.121 160.573, 329.745 159.756, 329.303 159.773 C 328.861 159.789, 327.825 159.452, 327 159.022 C 326.175 158.593, 323.572 158.819, 321.216 159.525 M 352.802 204.949 C 350.769 205.345, 348.406 206.248, 347.552 206.957 C 346.699 207.665, 346 208.016, 346 207.737 C 346 207.458, 342.547 210.778, 338.327 215.115 C 334.106 219.452, 330.030 223, 329.268 223 C 328.505 223, 328.160 223.450, 328.500 224 C 328.840 224.550, 328.447 225, 327.626 225 C 326.805 225, 324.416 227.127, 322.317 229.727 C 320.218 232.327, 317.366 235.431, 315.979 236.623 C 313.821 238.480, 309.748 245.281, 308.866 248.500 C 308.715 249.050, 308.914 251.783, 309.307 254.573 C 309.871 258.572, 310.971 260.757, 314.511 264.904 C 316.980 267.797, 319 269.971, 319 269.736 C 319 269.501, 321.117 269.847, 323.703 270.503 C 326.833 271.298, 329.594 271.393, 331.953 270.787 C 333.904 270.287, 336.041 269.830, 336.702 269.772 C 337.363 269.714, 345.523 262.204, 354.835 253.083 C 376.614 231.752, 378.300 228.619, 374.397 216.741 C 372.814 211.924, 368.782 208.261, 361.703 205.207 C 358.661 203.894, 358.282 203.883, 352.802 204.949 M 385 245.910 C 383.075 246.981, 374.369 255.314, 365.653 264.428 C 356.937 273.541, 349.399 280.747, 348.903 280.440 C 348.406 280.133, 348 280.535, 348 281.334 C 348 282.133, 347.345 283.037, 346.545 283.344 C 343.338 284.575, 338.121 300, 340.912 300 C 341.510 300, 342 300.710, 342 301.579 C 342 303.246, 348.713 310.355, 350.621 310.707 C 351.238 310.821, 352.884 311.121, 354.279 311.374 C 355.674 311.627, 358.770 311.364, 361.158 310.790 C 364.987 309.869, 367.886 307.318, 385.703 289.194 C 396.814 277.890, 406.356 267.485, 406.907 266.071 C 408.864 261.043, 408.168 251, 405.862 251 C 405.323 251, 405.133 250.594, 405.439 250.098 C 406.420 248.511, 398.737 244.825, 393.532 244.386 C 389.812 244.073, 387.588 244.470, 385 245.910 M 95.453 307.250 L 91.500 311.500 95.750 307.547 C 98.088 305.373, 100 303.460, 100 303.297 C 100 302.540, 99.129 303.298, 95.453 307.250" stroke="none" fill="#0c54a4" fill-rule="evenodd"/></svg>