<svg xmlns="http://www.w3.org/2000/svg" width="512" height="512" viewBox="0 0 512 512" version="1.1"><path d="M 342.314 18.749 C 351.561 18.914, 366.411 18.913, 375.314 18.748 C 384.216 18.582, 376.650 18.447, 358.500 18.448 C 340.350 18.448, 333.066 18.583, 342.314 18.749 M 341.250 72.728 C 343.313 72.944, 346.688 72.944, 348.750 72.728 C 350.813 72.513, 349.125 72.336, 345 72.336 C 340.875 72.336, 339.188 72.513, 341.250 72.728 M 449.402 91 C 449.402 99.525, 449.556 103.013, 449.743 98.750 C 449.931 94.487, 449.931 87.513, 449.743 83.250 C 449.556 78.987, 449.402 82.475, 449.402 91 M 331.250 165.742 C 334.962 165.934, 341.038 165.934, 344.750 165.742 C 348.462 165.549, 345.425 165.392, 338 165.392 C 330.575 165.392, 327.538 165.549, 331.250 165.742 M 107.250 230.689 C 108.213 230.941, 109.787 230.941, 110.750 230.689 C 111.713 230.438, 110.925 230.232, 109 230.232 C 107.075 230.232, 106.287 230.438, 107.250 230.689" stroke="none" fill="#1054a4" fill-rule="evenodd"/><path d="M 319.335 19.266 C 319.075 19.688, 318.458 19.783, 317.965 19.478 C 316.903 18.822, 306.050 21.801, 304.250 23.243 C 303.563 23.794, 303 23.953, 303 23.597 C 303 23.240, 301.650 23.647, 300 24.500 C 298.350 25.353, 297 26.490, 297 27.026 C 297 27.562, 296.632 27.887, 296.183 27.750 C 294.962 27.376, 282 39.224, 282 40.714 C 282 41.421, 281.550 42, 281 42 C 280.450 42, 280 42.675, 280 43.500 C 280 44.325, 279.602 45, 279.117 45 C 278.631 45, 277.904 46.012, 277.501 47.250 C 277.098 48.487, 276.690 49.725, 276.593 50 C 276.496 50.275, 275.702 51.850, 274.830 53.500 C 271.587 59.631, 270.898 67.032, 271.083 93.728 C 271.206 111.584, 271.640 120.681, 272.443 122.228 C 273.091 123.477, 273.659 124.847, 273.703 125.270 C 274.121 129.214, 275.268 133, 276.045 133 C 276.570 133, 277 133.900, 277 135 C 277 136.100, 277.406 137, 277.902 137 C 278.398 137, 279.267 138.238, 279.833 139.750 C 281.649 144.608, 294.722 156.972, 297.250 156.222 C 297.663 156.100, 298 156.438, 298 156.974 C 298 158.834, 309.712 163.566, 317 164.652 C 322.822 165.520, 358.921 164.981, 361.534 163.987 C 364.597 162.823, 366.727 164.419, 364.957 166.552 C 364.446 167.168, 363.821 169.433, 363.568 171.586 C 363.160 175.059, 361.216 181.658, 358.879 187.500 C 358.440 188.600, 357.949 190.400, 357.790 191.500 C 357.630 192.600, 357.171 193.746, 356.769 194.047 C 355.840 194.743, 351.931 210.264, 352.533 210.867 C 352.780 211.114, 352.526 211.866, 351.969 212.538 C 351.411 213.209, 350.763 215.501, 350.529 217.630 C 350.295 219.758, 349.748 224.200, 349.313 227.500 C 347.928 238.016, 348.481 257.608, 350.486 269 C 350.825 270.925, 351.246 273.625, 351.423 275 C 352.074 280.074, 354.284 288.580, 355.642 291.240 C 356.411 292.746, 357.002 294.096, 356.956 294.240 C 356.843 294.586, 357.451 296.755, 358.831 300.934 C 359.455 302.823, 359.860 304.473, 359.731 304.602 C 359.603 304.731, 357.023 304.178, 353.999 303.373 C 348.365 301.875, 344.408 301.059, 340 300.487 C 338.625 300.308, 337.500 300.091, 337.500 300.005 C 337.500 299.677, 333.220 298.948, 325 297.876 C 314.540 296.512, 287.501 297.444, 277 299.530 C 262.134 302.484, 261.496 302.471, 259.383 299.151 C 257.128 295.610, 245.842 282.859, 241.160 278.564 C 239.323 276.879, 236.129 273.925, 234.062 272 C 231.995 270.075, 229.027 267.600, 227.466 266.500 C 225.905 265.400, 223.409 263.488, 221.920 262.250 C 220.430 261.013, 218.751 260, 218.189 260 C 217.627 260, 217.017 259.584, 216.833 259.075 C 216.650 258.566, 215.863 258.004, 215.083 257.825 C 214.304 257.646, 212.853 256.724, 211.859 255.775 C 209.997 254, 196.286 246.776, 195.659 247.240 C 195.465 247.383, 194.563 246.882, 193.654 246.128 C 192.744 245.373, 191.993 245.148, 191.985 245.628 C 191.976 246.107, 191.639 246.050, 191.235 245.499 C 189.961 243.764, 168.794 235.874, 162 234.602 C 160.625 234.344, 157.025 233.619, 154 232.990 C 144.219 230.956, 138.818 230.567, 120.500 230.572 C 104.417 230.577, 98.054 230.966, 91.500 232.345 C 90.400 232.577, 87.138 233.086, 84.251 233.477 C 81.364 233.868, 78.746 234.603, 78.432 235.110 C 78.118 235.617, 77.423 235.762, 76.887 235.430 C 76.351 235.099, 75.188 235.429, 74.303 236.164 C 73.417 236.899, 72.537 237.387, 72.346 237.250 C 72.156 237.113, 71.888 237.037, 71.750 237.082 C 71.612 237.127, 70.180 237.379, 68.566 237.641 C 66.952 237.903, 63.714 238.991, 61.371 240.059 C 59.027 241.126, 56.720 242, 56.243 242 C 55.766 242, 53.513 242.900, 51.236 244 C 48.959 245.100, 46.598 246, 45.989 246 C 45.380 246, 45.167 246.461, 45.515 247.025 C 45.864 247.588, 45.778 247.985, 45.324 247.906 C 42.964 247.496, 40.875 248.234, 38.327 250.379 C 36.772 251.687, 35.158 252.803, 34.740 252.858 C 30.815 253.381, 14.255 265.238, 4.349 274.618 C 0.807 277.972, -0 279.396, -0 282.287 C -0 286.582, 0.891 289.185, 2.105 288.435 C 2.597 288.131, 3 288.535, 3 289.334 C 3 291.189, 5.507 292.306, 10.236 292.557 C 13.026 292.705, 14.665 292.113, 16.705 290.222 C 21.560 285.723, 31.356 278.340, 37 274.927 C 40.025 273.097, 42.725 271.287, 43 270.903 C 43.275 270.520, 46.200 268.944, 49.500 267.403 C 52.800 265.861, 55.831 264.127, 56.235 263.550 C 56.639 262.972, 56.976 262.849, 56.985 263.276 C 56.993 263.702, 58.462 263.271, 60.250 262.318 C 62.038 261.364, 63.725 260.547, 64 260.502 C 64.275 260.457, 68.427 259.177, 73.226 257.658 C 78.025 256.138, 82.975 254.701, 84.226 254.464 C 85.477 254.227, 87.625 253.794, 89 253.500 C 90.375 253.206, 92.625 252.737, 94 252.457 C 104.493 250.318, 135.055 249.633, 140.033 251.424 C 140.840 251.715, 143.525 252.172, 146 252.441 C 154.464 253.361, 169.966 257.421, 173.500 259.644 C 174.600 260.336, 175.725 260.893, 176 260.881 C 178.920 260.755, 200.319 271.573, 204.424 275.250 C 205.498 276.212, 206.737 277, 207.177 277 C 207.896 277, 210.186 278.674, 213.362 281.521 C 213.988 282.082, 216.750 284.330, 219.500 286.517 C 222.250 288.703, 225.228 291.281, 226.117 292.246 C 227.007 293.211, 228.244 294, 228.867 294 C 229.490 294, 230.009 294.563, 230.021 295.250 C 230.033 295.938, 232.508 299.088, 235.521 302.251 C 241.392 308.414, 241.995 309.762, 239.250 310.592 C 234.375 312.066, 220.160 319.725, 217.757 322.173 C 214.576 325.414, 214.197 331.290, 216.949 334.689 C 219.292 337.582, 225.637 339.546, 227.539 337.968 C 228.342 337.301, 229 337.032, 229 337.370 C 229 337.708, 231.813 336.496, 235.250 334.676 C 238.688 332.857, 243.863 330.521, 246.750 329.486 C 249.637 328.452, 252 327.258, 252 326.834 C 252 326.410, 252.675 326.322, 253.500 326.638 C 254.325 326.955, 255 326.689, 255 326.048 C 255 325.407, 255.470 325.172, 256.044 325.527 C 256.618 325.882, 257.630 325.744, 258.294 325.220 C 258.957 324.697, 260.625 324.019, 262 323.714 C 287.906 317.973, 290.483 317.640, 308 317.787 C 321.694 317.901, 328.882 318.341, 332.500 319.286 C 341.653 321.678, 351.775 324.246, 353.055 324.500 C 353.910 324.671, 356.280 325.508, 358.323 326.362 C 360.365 327.215, 362.141 327.909, 362.268 327.903 C 363.770 327.838, 383.091 336.962, 384.009 338.170 C 384.290 338.538, 385.179 338.988, 385.986 339.170 C 386.792 339.351, 388.058 340.063, 388.798 340.750 C 389.537 341.438, 391.945 342, 394.148 342 C 404.993 342, 408.065 327.169, 398.077 323.032 C 396.385 322.331, 395 321.414, 395 320.995 C 395 320.576, 394.139 320.008, 393.086 319.733 C 392.033 319.457, 389.941 317.267, 388.436 314.866 C 386.932 312.465, 385.280 310.225, 384.765 309.888 C 384.250 309.552, 383.864 308.990, 383.908 308.641 C 384.056 307.438, 380.782 300, 380.104 300 C 379.731 300, 379.359 299.117, 379.278 298.038 C 379.197 296.959, 378.465 294.597, 377.651 292.788 C 376.838 290.980, 375.649 287.700, 375.010 285.500 C 374.371 283.300, 373.590 280.825, 373.274 280 C 372.958 279.175, 372.610 277.600, 372.501 276.500 C 372.392 275.400, 372.002 273.150, 371.635 271.500 C 370.191 265.018, 369.910 263.306, 369.420 258 C 368.650 249.660, 368.631 238.141, 369.377 232 C 369.744 228.975, 370.283 224.475, 370.575 222 C 370.866 219.525, 371.732 215.363, 372.498 212.750 C 373.265 210.137, 373.636 208, 373.324 208 C 373.011 208, 373.208 207.438, 373.762 206.750 C 374.316 206.063, 375.098 203.925, 375.500 202 C 375.902 200.075, 376.535 198.050, 376.907 197.500 C 378.648 194.924, 385.578 169.297, 386.466 162.149 C 386.764 159.756, 387.206 157.476, 387.449 157.082 C 388.231 155.817, 389.363 134.926, 389.431 120.500 C 389.495 106.976, 388.728 99.171, 387.222 98.042 C 386.825 97.744, 386.346 96.600, 386.158 95.500 C 385.971 94.400, 385.408 93.350, 384.908 93.167 C 384.409 92.983, 384 92.083, 384 91.166 C 384 89.645, 379.129 84.047, 374.101 79.791 C 370.806 77.002, 364.423 74.077, 360.327 73.480 C 353.844 72.536, 336.642 72.740, 333.959 73.794 C 331.461 74.775, 328.042 78, 329.500 78 C 329.910 78, 329.810 78.563, 329.279 79.250 C 326.753 82.518, 330.053 90.309, 334.715 92.082 C 336.151 92.628, 341.190 93.032, 345.913 92.981 C 350.636 92.930, 355.625 93.121, 357 93.407 C 359.659 93.959, 368.589 102.850, 368.781 105.138 C 368.844 105.887, 368.953 111.970, 369.023 118.655 C 369.124 128.353, 368.803 131.486, 367.434 134.155 C 365.498 137.929, 361.021 143.563, 360.104 143.377 C 359.540 143.263, 358.845 143.439, 355 144.673 C 354.175 144.938, 346.203 145.101, 337.285 145.035 C 315.919 144.878, 308.489 142.424, 299.812 132.656 C 297.139 129.647, 292.984 122.320, 292.157 119.157 C 291.918 118.246, 291.554 106.614, 291.346 93.309 C 290.986 70.185, 291.071 68.817, 293.267 62.309 C 297.534 49.662, 306.223 42.209, 320 39.379 C 320.825 39.210, 338.150 39.043, 358.500 39.008 C 398.032 38.941, 403.674 39.496, 410.123 44.087 C 411.705 45.214, 413 45.950, 413 45.722 C 413 45.494, 414.700 46.926, 416.777 48.904 C 427.448 59.065, 429.195 65.117, 429.043 91.404 C 428.934 110.382, 428.966 110.684, 431.526 115.064 C 433.915 119.149, 441.868 131.161, 443.732 133.500 C 445.311 135.482, 453 148.637, 453 149.358 C 453 149.764, 454.575 152.558, 456.500 155.567 C 458.425 158.577, 460 161.471, 460 162 C 460 162.529, 461.765 166.683, 463.922 171.231 C 466.079 175.779, 468.825 181.975, 470.024 185 C 471.223 188.025, 472.683 191.625, 473.268 193 C 474.570 196.058, 474.497 195.836, 475.415 199.500 C 475.829 201.150, 476.342 203.067, 476.556 203.760 C 476.770 204.454, 476.996 205.354, 477.058 205.760 C 477.119 206.167, 477.637 207.063, 478.207 207.750 C 478.778 208.438, 478.959 209, 478.609 209 C 478.259 209, 478.635 210.583, 479.443 212.518 C 480.252 214.453, 480.885 216.141, 480.851 216.268 C 480.816 216.396, 481.363 218.525, 482.065 221 C 482.768 223.475, 483.237 226.287, 483.108 227.250 C 482.980 228.213, 483.263 229, 483.737 229 C 484.212 229, 484.631 230.012, 484.670 231.250 C 484.708 232.488, 485.062 235.075, 485.457 237 C 486.857 243.832, 487.609 248.510, 488.912 258.500 C 489.486 262.900, 490.271 268.750, 490.655 271.500 C 492.175 282.371, 491.291 328.163, 489.363 338.500 C 489.055 340.150, 488.690 343.300, 488.553 345.500 C 488.415 347.700, 487.775 351.384, 487.130 353.686 C 486.485 355.988, 486.020 358.238, 486.097 358.686 C 486.174 359.134, 486.149 359.725, 486.042 360 C 485.695 360.889, 484.986 364.420, 484.509 367.628 C 484.253 369.348, 483.581 371.973, 483.015 373.461 C 482.449 374.950, 482.221 376.549, 482.509 377.015 C 482.797 377.481, 482.614 378.120, 482.103 378.436 C 481.592 378.752, 480.855 380.921, 480.465 383.255 C 480.075 385.590, 478.904 389.670, 477.864 392.323 C 476.823 394.975, 476.230 397.563, 476.545 398.073 C 476.860 398.583, 476.641 399, 476.059 399 C 475.477 399, 475 399.810, 475 400.800 C 475 401.790, 474.642 403.027, 474.204 403.550 C 473.766 404.072, 472.833 406.198, 472.131 408.274 C 470.899 411.913, 466.164 419.807, 462.099 425 C 459.081 428.855, 451.328 437, 450.677 437 C 450.357 437, 447.262 438.961, 443.798 441.357 C 437.748 445.542, 424.515 451.511, 419.094 452.499 C 417.667 452.760, 413.125 453.656, 409 454.492 C 395.906 457.145, 388.105 458.614, 382 459.576 C 380.075 459.879, 377.375 460.342, 376 460.603 C 374.625 460.865, 371.925 461.311, 370 461.594 C 368.075 461.878, 365.825 462.241, 365 462.401 C 364.175 462.561, 360.800 463.028, 357.500 463.439 C 354.200 463.850, 347.450 464.796, 342.500 465.541 C 337.550 466.287, 330.125 467.200, 326 467.570 C 321.875 467.940, 317.150 468.396, 315.500 468.583 C 313.850 468.770, 308.675 469.183, 304 469.500 C 299.325 469.817, 294.150 470.261, 292.500 470.487 C 290.850 470.713, 284.554 471.190, 278.509 471.548 C 272.465 471.905, 266.374 472.790, 264.974 473.513 C 259.338 476.428, 258.507 484.779, 263.368 489.641 C 265.931 492.204, 266.025 492.217, 278.224 491.657 C 299.409 490.685, 313.500 489.640, 313.500 489.041 C 313.500 488.979, 316.200 488.753, 319.500 488.538 C 322.800 488.323, 327.750 487.863, 330.500 487.515 C 333.250 487.167, 337.075 486.683, 339 486.439 C 340.925 486.195, 346.550 485.543, 351.500 484.990 C 356.450 484.438, 361.625 483.773, 363 483.513 C 366.841 482.788, 370.893 482.097, 378 480.957 C 385.803 479.706, 388.689 479.208, 392 478.543 C 393.375 478.267, 395.625 477.838, 397 477.591 C 398.375 477.343, 403.775 476.249, 409 475.158 C 414.225 474.068, 420.075 472.928, 422 472.624 C 429.385 471.461, 443 466.409, 443 464.832 C 443 464.310, 443.440 464.154, 443.979 464.487 C 444.917 465.067, 451.141 461.309, 451.835 459.744 C 452.020 459.328, 452.582 459.242, 453.085 459.553 C 453.588 459.864, 454 459.566, 454 458.892 C 454 458.218, 454.283 457.949, 454.628 458.295 C 456.464 460.131, 477.074 440.051, 483.353 430.308 C 487.756 423.477, 493.145 412.604, 492.809 411.233 C 492.709 410.830, 493.333 408.886, 494.195 406.913 C 495.856 403.109, 496.819 400.319, 497.502 397.330 C 497.732 396.323, 498.648 393.479, 499.538 391.009 C 500.428 388.540, 501.333 385.390, 501.549 384.009 C 501.765 382.629, 502.377 379.725, 502.910 377.555 C 503.442 375.386, 503.653 373.248, 503.380 372.805 C 503.106 372.362, 503.396 372, 504.024 372 C 504.653 372, 504.969 371.438, 504.727 370.750 C 504.485 370.063, 504.670 368.465, 505.138 367.199 C 505.606 365.933, 506.218 363.075, 506.498 360.848 C 506.778 358.620, 507.201 356.484, 507.438 356.101 C 507.674 355.718, 508.157 352.726, 508.511 349.452 C 508.865 346.179, 509.315 342.375, 509.510 341 C 511.069 330.024, 511.805 318.010, 511.796 303.691 C 511.789 294.446, 512.058 286.609, 512.392 286.275 C 513.381 285.286, 513.086 279.029, 511.950 276.907 C 511.084 275.288, 509.980 266.429, 509.843 260 C 509.814 258.650, 508.637 250.488, 507.319 242.500 C 507.047 240.850, 505.953 235.450, 504.887 230.500 C 503.822 225.550, 502.692 220.150, 502.376 218.500 C 502.061 216.850, 501.373 215.234, 500.849 214.908 C 500.324 214.583, 499.992 213.908, 500.111 213.408 C 500.231 212.909, 500.002 211.349, 499.604 209.941 C 499.205 208.534, 498.716 206.509, 498.516 205.441 C 498.316 204.374, 498.062 203.387, 497.952 203.250 C 497.841 203.113, 497.683 202.662, 497.601 202.250 C 496.771 198.074, 494.560 192, 493.870 192 C 493.392 192, 493.109 191.662, 493.242 191.250 C 493.671 189.920, 489.712 178, 488.842 178 C 488.379 178, 488.053 177.662, 488.118 177.250 C 488.184 176.838, 488.127 176.162, 487.993 175.750 C 487.860 175.338, 487.677 174.662, 487.587 174.250 C 486.976 171.437, 470.881 138.710, 469.705 137.888 C 469.223 137.552, 468.846 136.877, 468.866 136.388 C 468.886 135.900, 467.919 133.925, 466.717 132 C 465.515 130.075, 464.348 128.050, 464.123 127.500 C 463.899 126.950, 462.766 125.159, 461.607 123.521 C 460.448 121.882, 459.050 119.757, 458.500 118.797 C 457.950 117.838, 455.560 114.288, 453.190 110.908 L 448.880 104.762 448.928 87.631 C 448.955 78.209, 448.996 69.037, 449.020 67.250 C 449.043 65.462, 448.711 63.999, 448.281 63.998 C 447.852 63.997, 447.402 62.598, 447.282 60.889 C 447.162 59.180, 446.658 57.268, 446.162 56.641 C 445.666 56.013, 444.730 53.852, 444.082 51.838 C 443.433 49.824, 441.738 47.011, 440.315 45.588 C 438.892 44.165, 438.017 43, 438.371 43 C 438.971 43, 436.207 39.595, 431.500 34.534 C 428.516 31.326, 422.323 26.870, 420.469 26.598 C 419.573 26.467, 418.505 25.818, 418.097 25.156 C 417.688 24.495, 416.403 23.770, 415.241 23.546 C 414.080 23.323, 412.313 22.718, 411.315 22.202 C 405.988 19.450, 397.967 18.907, 359.643 18.707 C 337.734 18.593, 319.596 18.845, 319.335 19.266 M 511.704 281.750 C 512.506 286.943, 513 287.102, 513 282.167 C 513 279.875, 512.578 278, 512.063 278 C 511.544 278, 511.384 279.673, 511.704 281.750 M 3.254 455.762 C 0.860 458, 0.195 459.467, 0.179 462.558 C 0.140 469.907, 3.382 472.503, 14.500 474.021 C 17.800 474.471, 23.875 475.359, 28 475.994 C 32.125 476.629, 37.643 477.167, 40.262 477.189 C 42.882 477.212, 45.271 477.629, 45.571 478.115 C 45.872 478.602, 48.072 479, 50.460 479 C 52.848 479, 59.908 479.858, 66.151 480.906 C 72.393 481.954, 79.750 483.096, 82.500 483.442 C 85.250 483.789, 89.300 484.321, 91.500 484.623 C 93.700 484.926, 97.075 485.326, 99 485.512 C 104.038 485.999, 111.600 486.909, 114.769 487.410 C 122.187 488.582, 134.808 489.747, 148.500 490.524 C 152.350 490.743, 158.425 491.180, 162 491.496 C 186.050 493.620, 189.136 492.613, 189.544 482.500 C 189.716 478.252, 187.973 474.632, 185.190 473.451 C 182.958 472.505, 173.545 471.683, 151.615 470.520 C 146.728 470.261, 142.003 469.834, 141.115 469.572 C 140.227 469.310, 135.900 468.839, 131.500 468.526 C 121.420 467.809, 115.708 467.236, 110 466.372 C 107.525 465.997, 104.375 465.562, 103 465.406 C 101.625 465.250, 95.100 464.385, 88.500 463.484 C 81.900 462.582, 73.125 461.449, 69 460.964 C 64.875 460.480, 60.375 459.866, 59 459.600 C 57.625 459.334, 53.125 458.641, 49 458.059 C 27.650 455.051, 19.867 454.056, 13.404 453.509 C 6.601 452.934, 6.183 453.027, 3.254 455.762 M 221.500 474.226 C 217.614 475.638, 215.597 478.573, 215.282 483.274 C 214.569 493.900, 230.333 497.135, 234.313 487.180 C 235.562 484.056, 235.580 483.103, 234.432 480.877 C 233.688 479.434, 233.290 478.044, 233.546 477.787 C 234.433 476.900, 230.488 474.220, 227.500 473.680 C 225.850 473.381, 223.150 473.627, 221.500 474.226" stroke="none" fill="#0c54a4" fill-rule="evenodd"/></svg>