<svg xmlns="http://www.w3.org/2000/svg" width="1200" height="963" viewBox="0 0 1200 963" version="1.1"><path d="M 1139.482 11.847 C 1047.220 56.612, 957.521 97.866, 886.599 128.151 C 854.676 141.782, 664.502 219.194, 223 398.272 C 139.675 432.070, 67.225 461.864, 62 464.482 C 48.686 471.153, 37.053 479.170, 27.238 488.438 C 13.412 501.495, 4.769 515.660, 1.407 530.773 C -0.831 540.835, -0.082 560.348, 2.952 571 C 5.968 581.590, 13.789 597.178, 21.045 607.066 C 25.209 612.740, 51.365 639.717, 100.970 689.500 C 141.525 730.200, 176.063 765.525, 177.722 768 C 181.281 773.309, 187.964 786.529, 190.488 793.250 L 192.272 798 241.719 798 C 272.159 798, 291.039 797.639, 290.833 797.060 C 290.522 796.182, 223.010 732.715, 133.966 649.592 C 112.810 629.843, 89.787 608.341, 82.805 601.810 C 65.033 585.186, 58.090 574.123, 56.399 559.738 C 55.663 553.478, 57.758 544.927, 61.468 539.050 C 64.826 533.731, 74.756 525.063, 82.289 520.877 C 99.538 511.290, 81.450 517.737, 751 282.506 C 878.875 237.580, 992.050 197.650, 1002.500 193.772 C 1052.229 175.319, 1078.424 162.311, 1095.404 147.638 C 1103.517 140.626, 1117.897 122.762, 1124.611 111.355 C 1136.096 91.841, 1153.929 49.901, 1166.608 12.588 C 1170.179 2.081, 1170.008 -0.102, 1165.628 0.097 C 1164.457 0.150, 1152.692 5.437, 1139.482 11.847 M 1071.597 210.109 C 1047.247 220.963, 927.373 262.564, 818 298.118 C 756.284 318.180, 710.541 333.166, 448 419.332 C 339.925 454.803, 217.525 494.940, 176 508.527 C 134.475 522.114, 98.379 534.303, 95.787 535.613 C 89.423 538.831, 84.474 543.338, 81.212 548.887 C 78.960 552.717, 78.500 554.688, 78.500 560.500 C 78.500 566.666, 78.917 568.230, 82 573.629 C 86.288 581.138, 105.187 599.388, 107.823 598.565 C 108.745 598.276, 158.325 585.200, 218 569.506 C 277.675 553.812, 327.159 540.730, 327.964 540.435 C 329.054 540.036, 328.803 539.586, 326.981 538.678 C 321.884 536.137, 321.894 528.572, 327 524.912 C 328.400 523.909, 389.553 506.998, 466 486.474 C 694.595 425.101, 717.470 418.965, 806.500 395.130 C 853.800 382.467, 907.854 368.044, 926.621 363.078 C 971.522 351.198, 979.943 348.073, 996.500 337.151 C 1005.105 331.475, 1026.260 311.078, 1033.431 301.544 C 1043.544 288.100, 1057.868 263.622, 1075.430 229.775 C 1088.409 204.760, 1088.024 202.786, 1071.597 210.109 M 981.500 387.152 C 977.885 388.198, 792.084 436.209, 657 471.003 C 576.737 491.677, 203.559 587.746, 137.251 604.805 C 127.215 607.387, 119.115 609.810, 119.251 610.188 C 119.388 610.566, 130.956 621.494, 144.957 634.472 C 167.119 655.013, 170.744 657.999, 172.957 657.535 C 178.670 656.338, 436.069 608, 436.730 608 C 437.124 608, 436.015 606.693, 434.266 605.096 C 428.504 599.833, 428.934 593.343, 435.232 590.520 C 437.979 589.288, 689.462 540.299, 825.500 514.495 C 870.123 506.031, 880.415 503.534, 892.904 498.143 C 915.703 488.301, 929.709 475.361, 953.673 442 C 968.687 421.099, 988 391.379, 988 389.177 C 988 387.273, 984.668 386.235, 981.500 387.152 M 528.564 603.865 C 338.850 639.477, 183.520 669.039, 183.388 669.557 C 183.255 670.076, 196.382 682.650, 212.558 697.500 L 241.969 724.500 246.234 724.207 C 252.334 723.787, 560.389 684.944, 560.789 684.544 C 560.972 684.362, 559.969 683.060, 558.561 681.652 C 553.881 676.972, 556.462 669.067, 563.164 667.554 C 564.449 667.264, 607.125 660.919, 658 653.455 C 708.875 645.991, 754.646 639.029, 759.714 637.983 C 783.267 633.123, 803.743 622.772, 819.880 607.569 C 832.706 595.486, 879.330 542.499, 878.734 540.683 C 878.520 540.032, 877.255 539.414, 875.923 539.308 C 874.590 539.202, 718.279 568.253, 528.564 603.865 M 418.500 718.046 C 330.500 728.415, 258.125 736.922, 257.667 736.949 C 257.208 736.977, 256.983 737.412, 257.167 737.916 C 257.350 738.420, 271.675 752.131, 289 768.385 L 320.500 797.937 531.964 797.968 C 711.492 797.995, 743.207 797.792, 741.964 796.624 C 741.159 795.867, 705.689 773.592, 663.142 747.124 C 596.403 705.606, 585.284 699.013, 582.142 699.097 C 580.139 699.150, 506.500 707.678, 418.500 718.046 M 342.500 819.108 C 294.694 824.288, 265.018 844.476, 258.567 876.208 C 252.754 904.803, 264.293 931.535, 288.649 945.893 C 308.929 957.849, 340.789 963.964, 376 962.659 C 442.228 960.203, 478 934.897, 478 890.500 C 478 852.600, 451.756 828.392, 402 820.394 C 390.393 818.528, 354.929 817.762, 342.500 819.108 M 6 831.491 C 6 836.721, 6.338 841.008, 6.750 841.018 C 11.594 841.134, 26.397 844.214, 28.392 845.521 C 32.838 848.434, 33.150 851.763, 32.814 892.671 L 32.500 930.841 30.065 933.432 C 27.266 936.410, 23.452 937.565, 13.250 938.522 L 6 939.203 6 948.610 L 6 958.017 60.250 957.759 L 114.500 957.500 114.500 948.523 L 114.500 939.546 110 938.856 C 107.525 938.477, 102.836 937.862, 99.580 937.490 C 94.946 936.960, 93.045 936.199, 90.830 933.984 C 88.001 931.155, 88 931.148, 88 917.577 L 88 904 129 904 L 170 904 170 917.577 C 170 931.148, 169.999 931.155, 167.170 933.984 C 164.976 936.177, 163.010 936.977, 158.420 937.539 C 155.164 937.939, 150.475 938.549, 148 938.895 L 143.500 939.525 143.500 948.512 L 143.500 957.500 197.750 957.759 L 252 958.017 252 948.649 L 252 939.282 242.289 938.179 C 232.051 937.016, 228.601 935.449, 226.265 930.904 C 225.349 929.123, 225.026 918.714, 225.015 890.718 C 224.999 850.279, 225.301 847.515, 230.016 844.992 C 231.729 844.075, 247.597 841.105, 251.250 841.018 C 251.662 841.008, 252 836.721, 252 831.491 L 252 821.983 197.750 822.241 L 143.500 822.500 143.214 831.630 L 142.928 840.759 151.214 841.930 C 169.196 844.469, 170 845.377, 170 863.135 L 170 876 129 876 L 88 876 88 863.135 C 88 851.751, 88.232 849.975, 90.016 847.707 C 92.342 844.750, 96.060 843.393, 104.500 842.422 C 115.278 841.183, 115.122 841.352, 114.789 831.260 L 114.500 822.500 60.250 822.241 L 6 821.983 6 831.491 M 484.214 831.750 L 484.500 841.500 491 842.195 C 503.536 843.537, 505.817 844.101, 508.405 846.499 L 511 848.905 511 889.817 C 511 929.572, 510.942 930.804, 508.946 933.341 C 506.571 936.361, 502.571 937.561, 491.750 938.499 L 484 939.171 484 948.585 L 484 958 528 958 L 572 958 572 948.969 C 572 942.647, 571.625 939.804, 570.750 939.493 C 570.063 939.249, 565.048 938.401, 559.607 937.609 C 551.371 936.410, 549.278 935.732, 547.107 933.563 L 544.500 930.957 544.281 894.728 C 544.087 862.722, 544.232 858.733, 545.524 860.500 C 546.329 861.600, 562.864 883.200, 582.267 908.500 C 608.594 942.826, 618.430 954.944, 621.024 956.248 C 624.136 957.814, 628.183 957.997, 659.725 957.998 L 694.950 958 695.225 903.417 L 695.500 848.835 698.618 846.049 C 700.958 843.959, 703.206 843.093, 707.618 842.581 C 710.853 842.205, 715.654 841.636, 718.286 841.315 L 723.072 840.733 722.786 831.616 L 722.500 822.500 678.750 822.239 L 635 821.979 635 831.422 C 635 842.257, 634.223 841.472, 646 842.530 C 654.182 843.265, 659.521 845.237, 661.047 848.089 C 661.647 849.208, 661.924 863.529, 661.763 885.054 L 661.500 920.191 625.023 872.614 C 593.756 831.830, 588.005 824.819, 584.753 823.518 C 581.544 822.234, 573.491 822, 532.444 822 L 483.928 822 484.214 831.750 M 731.213 831.699 L 731.500 841.500 741.908 842.714 C 750.994 843.774, 752.676 844.274, 755.158 846.651 L 758 849.374 758 889.237 C 758 931.705, 757.819 933.421, 753.063 935.966 C 752.010 936.530, 746.614 937.507, 741.074 938.137 L 731 939.282 731 948.641 L 731 958 804.750 957.997 C 852.380 957.995, 881.687 957.604, 887.500 956.891 C 921.723 952.697, 945.266 935.014, 952.592 908 C 954.768 899.977, 955.056 881.834, 953.132 874 C 947.042 849.202, 926.743 831.826, 895.522 824.687 C 886.907 822.718, 882.990 822.608, 808.713 822.261 L 730.926 821.898 731.213 831.699 M 988.438 823.300 C 988.150 824.052, 988.046 828.455, 988.207 833.084 L 988.500 841.500 1001.500 842.756 C 1013.386 843.905, 1014.693 844.231, 1016.750 846.562 C 1017.987 847.964, 1018.991 849.874, 1018.979 850.806 C 1018.968 851.738, 1007.777 870.725, 994.110 893 C 976.348 921.950, 968.431 933.989, 966.347 935.216 C 964.744 936.160, 960.747 937.193, 957.466 937.512 C 954.185 937.831, 949.587 938.324, 947.250 938.607 L 943 939.123 943 948.561 L 943 958 986.500 958 L 1030 958 1030 948.661 L 1030 939.322 1020.869 938.198 C 1006.881 936.476, 1005.383 934.034, 1011.750 923.336 L 1015.500 917.035 1057.205 917.017 L 1098.911 917 1103.142 924.122 C 1107.146 930.862, 1107.294 931.386, 1105.908 933.872 C 1104.630 936.162, 1103.546 936.604, 1097.471 937.307 C 1093.637 937.751, 1088.588 938.341, 1086.250 938.618 L 1082 939.123 1082 948.561 L 1082 958 1140.500 958 L 1199 958 1199 948.655 L 1199 939.309 1188.758 938.068 C 1183.124 937.385, 1177.283 936.099, 1175.777 935.209 C 1174.095 934.215, 1165.605 922.289, 1153.769 904.292 C 1110.529 838.542, 1102.375 826.523, 1099.678 824.557 C 1096.924 822.550, 1095.542 822.493, 1042.909 822.217 C 998.024 821.981, 988.875 822.163, 988.438 823.300 M 349.500 845.358 C 337.966 848.333, 330.596 854.086, 325.649 863.976 C 315.982 883.299, 319.602 915.541, 332.733 927.071 C 341.615 934.869, 351.798 937.441, 371.187 936.784 C 390.436 936.132, 398.526 932.792, 406.723 922.114 C 415.646 910.490, 417.556 884.252, 410.795 866.181 C 407.883 858.398, 399.583 850.144, 391.493 846.986 C 386.294 844.957, 383.446 844.609, 370 844.358 C 359.696 844.165, 352.824 844.501, 349.500 845.358 M 811 890.431 L 811 932 834.750 931.980 C 869.308 931.951, 875.925 930.578, 883.359 921.894 C 887.870 916.623, 889.926 910.449, 891.007 898.923 C 892.845 879.332, 888.965 863.660, 880.414 856.133 C 873.428 849.984, 871.695 849.691, 839.750 849.255 L 811 848.863 811 890.431 M 1043.324 872.103 L 1031.148 892 1056.547 892 L 1081.946 892 1069.372 872.750 C 1062.457 862.163, 1056.507 853.209, 1056.149 852.853 C 1055.792 852.498, 1050.021 861.160, 1043.324 872.103" stroke="none" fill="#ff0404" fill-rule="evenodd"/><path d="" stroke="none" fill="#fc0404" fill-rule="evenodd"/></svg>