<?xml version="1.0" encoding="UTF-8" standalone="no"?>
<!-- Created with Inkscape (http://www.inkscape.org/) -->

<svg
   version="1.1"
   id="svg2"
   width="134.08932"
   height="161.59467"
   viewBox="0 0 134.08932 161.59467"
   sodipodi:docname="husqvarna-seeklogo.ai"
   xmlns:inkscape="http://www.inkscape.org/namespaces/inkscape"
   xmlns:sodipodi="http://sodipodi.sourceforge.net/DTD/sodipodi-0.dtd"
   xmlns="http://www.w3.org/2000/svg"
   xmlns:svg="http://www.w3.org/2000/svg">
  <defs
     id="defs6">
    <clipPath
       clipPathUnits="userSpaceOnUse"
       id="clipPath16">
      <path
         d="M 0,792 H 612 V 0 H 0 Z"
         id="path14" />
    </clipPath>
  </defs>
  <sodipodi:namedview
     id="namedview4"
     pagecolor="#ffffff"
     bordercolor="#000000"
     borderopacity="0.25"
     inkscape:showpageshadow="2"
     inkscape:pageopacity="0.0"
     inkscape:pagecheckerboard="0"
     inkscape:deskcolor="#d1d1d1" />
  <g
     id="g8"
     inkscape:groupmode="layer"
     inkscape:label="husqvarna-seeklogo"
     transform="matrix(1.3333333,0,0,-1.3333333,-335.14,644.768)">
    <g
       id="g10">
      <g
         id="g12"
         clip-path="url(#clipPath16)">
        <g
           id="g18"
           transform="translate(299.96,385.0303)">
          <path
             d="m 0,0 c 8.239,-0.041 23.22,-0.771 31.741,8.669 4.149,4.602 5.201,7.6 7.264,14.133 1.81,5.695 1.566,9.082 2.141,15.357 0.169,4.626 0.414,10.163 -1.157,18.095 -1.728,8.838 -3.047,13.631 -7.095,17.677 5.367,2.724 6.111,10.736 5.367,16.185 0,0 -4.114,2.043 -6.852,3.067 -2.986,1.108 -7.844,2.312 -7.844,2.312 0,-4.297 0.498,-10.828 -2.72,-12.97 -3.299,-1.897 -11.394,0 -12.711,4.126 -0.412,1.238 -0.826,5.533 0,10.905 -1.157,0.25 -4.372,0.99 -8.257,0.99 -4.206,0 -6.935,-0.74 -8.087,-0.99 0.578,-5.372 0.408,-9.667 0,-10.905 -1.408,-4.126 -9.412,-6.023 -12.632,-4.126 -3.546,2.142 -2.717,8.673 -2.717,12.97 0,0 -5.215,-1.279 -8.424,-2.48 -2.605,-0.98 -6.519,-2.899 -6.519,-2.899 -0.826,-5.449 0,-13.461 5.363,-16.185 -4.042,-4.046 -5.363,-8.839 -7.1,-17.677 -1.401,-7.932 -1.07,-13.469 -0.988,-18.095 0.414,-6.275 0.414,-9.662 1.899,-15.357 2.147,-6.533 3.41,-9.595 7.762,-14.133 C -22.75,-0.542 -8.272,-0.009 0,0 m 0.044,39.17 c 8.09,0 7.972,0 7.972,-2.64 V 19.878 h 11.383 v 46.11 H 8.016 V 52.144 c 0,-2.719 0.118,-2.719 -7.972,-2.719 -8.254,0 -8.215,0 -8.215,2.719 V 65.988 H -19.405 V 19.878 H -8.171 V 36.53 c 0,2.64 -0.039,2.64 8.215,2.64 m 0,-27.36 c -9.662,0 -12.877,0 -17.666,1.324 -1.645,0.577 -4.619,1.4 -6.766,4.79 -3.96,6.776 -3.96,19.497 -3.96,25.605 0,6.115 0,16.941 3.96,23.631 2.147,3.469 5.121,4.295 6.766,4.872 4.789,1.238 8.004,1.238 17.666,1.238 9.407,0 12.63,0 17.502,-1.238 1.648,-0.577 4.533,-1.403 6.517,-4.872 4.295,-6.69 4.295,-18.262 4.295,-24.375 0,-5.941 0,-18.085 -4.295,-24.861 -1.984,-3.39 -4.869,-4.213 -6.517,-4.79 C 12.674,11.81 9.451,11.81 0.044,11.81"
             style="fill:#26499e;fill-opacity:1;fill-rule:evenodd;stroke:none"
             id="path20" />
        </g>
        <g
           id="g22"
           transform="translate(275.9678,377.457)">
          <path
             d="m 0,0 h -2.88 v -6.958 c 0,-1.968 -0.79,-2.965 -2.41,-2.965 -0.631,0 -1.095,0.25 -1.423,0.576 -0.414,0.416 -0.616,1.107 -0.616,2.112 V 0 h -2.859 v -7.477 c 0,-1.645 0.375,-2.822 1.151,-3.596 0.74,-0.742 1.643,-1.102 3.138,-1.102 1.044,0 2.323,0.711 3.056,1.646 V -11.86 H 0 Z"
             style="fill:#26499e;fill-opacity:1;fill-rule:evenodd;stroke:none"
             id="path24" />
        </g>
        <g
           id="g26"
           transform="translate(313.291,368.9248)">
          <path
             d="M 0,0 C -0.076,0.892 0.441,1.532 1.799,1.766 2.15,1.835 2.52,1.869 2.871,1.922 3.41,2.003 4.051,2.152 4.596,2.521 V 0.704 C 4.596,-0.767 3.135,-1.317 2.068,-1.301 0.998,-1.282 0.076,-0.891 0,0 M 7.457,5.333 C 7.457,6.22 7.16,6.965 6.578,7.55 5.756,8.375 4.58,8.854 2.881,8.847 1.182,8.838 -1.688,8.491 -2.02,5.26 H 0.855 C 0.816,6.766 2.734,6.634 2.734,6.634 3.344,6.634 3.902,6.44 4.309,6.114 4.559,5.915 4.727,5.609 4.744,5.111 4.777,4.307 4.391,3.922 1.695,3.66 -0.383,3.46 -2.861,2.895 -2.861,-0.092 c 0,-0.952 0.328,-1.781 0.941,-2.397 0.744,-0.744 1.867,-1.154 3.164,-1.154 1.715,0 2.705,0.429 3.586,1.416 l 0.139,-1.101 h 2.763 v 0.444 c -0.357,0.28 -0.275,1.458 -0.275,1.458 z"
             style="fill:#26499e;fill-opacity:1;fill-rule:evenodd;stroke:none"
             id="path28" />
        </g>
        <g
           id="g30"
           transform="translate(293.7153,367.624)">
          <path
             d="m 0,0 c -0.806,0 -1.335,0.258 -1.84,0.765 -0.684,0.684 -1.059,1.801 -1.059,3.147 0,1.281 0.412,2.429 1.129,3.147 0.518,0.518 1.021,0.782 1.77,0.782 1.676,0 2.558,-1.073 2.817,-3.025 C 2.855,4.521 2.872,3.443 2.855,3.241 2.666,1.152 1.771,0 0,0 M 5.658,-5.237 5.656,9.823 2.928,9.833 V 8.348 c -0.736,1.015 -1.761,1.799 -3.279,1.799 -3.42,0 -5.409,-2.418 -5.409,-6.309 0,-1.985 0.629,-3.751 1.724,-4.847 0.884,-0.885 1.889,-1.333 3.259,-1.333 1.556,0 2.693,0.713 3.557,1.776 v -4.678 z"
             style="fill:#26499e;fill-opacity:1;fill-rule:evenodd;stroke:none"
             id="path32" />
        </g>
        <g
           id="g34"
           transform="translate(251.355,365.5967)">
          <path
             d="M 0,0 H 3.119 V 7.038 H 9.658 V 0 h 3.119 V 15.823 H 9.658 V 9.769 H 3.119 v 6.054 H 0 Z"
             style="fill:#26499e;fill-opacity:1;fill-rule:evenodd;stroke:none"
             id="path36" />
        </g>
        <g
           id="g38"
           transform="translate(282.3535,367.5693)">
          <path
             d="m 0,0 c -1.229,-0.031 -2.189,0.499 -2.369,1.566 h -2.895 c 0.139,-2.998 3.146,-3.898 5.227,-3.853 2.081,0.043 3.023,0.534 3.955,1.467 0.652,0.652 0.981,1.477 0.981,2.453 0,2.314 -1.754,3.071 -3.751,3.547 C 1.144,5.181 0.521,5.324 0.521,5.324 -1.032,5.627 -2.306,5.937 -2.234,6.836 -2.161,7.734 -1.188,7.928 -0.425,7.95 0.336,7.973 0.976,7.853 1.427,6.939 h 2.985 c -0.297,2.3 -2.409,3.296 -4.653,3.263 -2.204,-0.033 -4.824,-0.906 -4.824,-3.458 0,-2.404 1.664,-3.135 3.662,-3.567 C -1.134,3.115 -0.861,3.059 -0.599,3.002 0.894,2.688 2.019,2.392 2.042,1.405 2.063,0.419 1.232,0.033 0,0"
             style="fill:#26499e;fill-opacity:1;fill-rule:evenodd;stroke:none"
             id="path40" />
        </g>
        <g
           id="g42"
           transform="translate(311.1914,377.457)">
          <path
             d="M 0,0 H -2.979 L -5.525,-9.124 -8.162,0 h -3.106 l 4.115,-11.86 h 3.077 z"
             style="fill:#26499e;fill-opacity:1;fill-rule:evenodd;stroke:none"
             id="path44" />
        </g>
        <g
           id="g46"
           transform="translate(325.2148,371.2588)">
          <path
             d="M 0,0 C 0,1.288 0.082,2.261 0.676,3.023 1.125,3.599 1.918,4.172 2.707,4.149 3.494,4.127 3.951,3.967 3.951,3.967 v 2.56 c 0,0 -0.762,0.181 -1.594,0.058 C 1.424,6.445 0.313,5.389 -0.166,4.124 V 6.198 H -2.879 V -5.662 H 0 Z"
             style="fill:#26499e;fill-opacity:1;fill-rule:evenodd;stroke:none"
             id="path48" />
        </g>
        <g
           id="g50"
           transform="translate(340.4121,373.7021)">
          <path
             d="m 0,0 c 0,1.243 -0.355,2.232 -1.064,2.942 -0.737,0.738 -1.784,1.127 -3.127,1.127 -1.411,0 -2.467,-0.746 -3.319,-2.091 v 1.777 h -2.711 v -11.86 h 2.86 v 6.994 c 0,0.854 0.183,1.644 0.715,2.178 0.472,0.473 1.152,0.74 1.97,0.723 1.321,-0.024 1.766,-0.783 1.819,-2.48 V -8.105 H 0 Z"
             style="fill:#26499e;fill-opacity:1;fill-rule:evenodd;stroke:none"
             id="path52" />
        </g>
        <g
           id="g54"
           transform="translate(344.1875,368.9189)">
          <path
             d="M 0,0 C -0.076,0.893 0.441,1.53 1.799,1.766 2.152,1.835 2.52,1.868 2.873,1.922 3.41,2.002 4.051,2.151 4.598,2.521 V 0.704 C 4.598,-0.767 3.135,-1.316 2.066,-1.3 1,-1.281 0.076,-0.894 0,0 M 7.455,5.332 C 7.455,6.219 7.16,6.967 6.578,7.549 5.754,8.374 4.387,8.854 2.688,8.847 0.988,8.839 -1.881,8.489 -2.213,5.261 H 0.662 C 0.623,6.765 2.539,6.632 2.539,6.632 3.152,6.632 3.904,6.441 4.311,6.115 4.559,5.915 4.725,5.609 4.746,5.11 4.779,4.307 4.391,3.921 1.697,3.658 -0.381,3.457 -2.859,2.896 -2.859,-0.093 c 0,-0.952 0.326,-1.78 0.941,-2.395 0.742,-0.745 1.867,-1.156 3.16,-1.156 1.715,0 2.705,0.431 3.59,1.417 l 0.139,-1.101 h 2.763 v 0.443 c -0.357,0.281 -0.279,1.459 -0.279,1.459 z"
             style="fill:#26499e;fill-opacity:1;fill-rule:evenodd;stroke:none"
             id="path56" />
        </g>
      </g>
    </g>
  </g>
</svg>
