<svg xmlns="http://www.w3.org/2000/svg" width="1120" height="508" viewBox="0 0 1120 508" version="1.1"><path d="M 651.345 344.250 C 651.091 344.663, 745.971 344.890, 862.191 344.756 C 978.411 344.622, 1039.300 344.398, 997.500 344.257 C 794.961 343.575, 651.764 343.572, 651.345 344.250" stroke="none" fill="#048c34" fill-rule="evenodd"/><path d="M 34 172 L 34 344 195 344 L 356 344 356 257.981 L 356 171.961 384.750 172.512 C 414.840 173.089, 422.345 173.377, 438 174.560 C 443.225 174.955, 449.525 175.421, 452 175.596 C 454.475 175.772, 458.750 176.148, 461.500 176.433 C 464.250 176.718, 469.200 177.208, 472.500 177.522 C 480.982 178.329, 486.107 178.903, 489 179.370 C 491.651 179.797, 498.202 180.710, 504 181.461 C 505.925 181.710, 508.735 182.166, 510.245 182.475 C 511.755 182.785, 514.792 183.141, 516.995 183.269 C 519.197 183.396, 520.999 183.762, 520.999 184.083 C 521 184.404, 521.563 184.681, 522.250 184.699 C 523.968 184.743, 531.166 185.947, 533 186.497 C 533.825 186.744, 536.075 187.153, 538 187.405 C 539.925 187.657, 545.100 188.625, 549.500 189.557 C 553.900 190.488, 557.950 191.319, 558.500 191.403 C 559.050 191.487, 559.950 191.837, 560.500 192.179 C 561.529 192.820, 568.333 194.164, 571 194.253 C 571.825 194.280, 572.725 194.599, 573 194.962 C 573.275 195.324, 577.325 196.599, 582 197.795 C 586.675 198.991, 591.288 200.202, 592.250 200.485 C 593.212 200.768, 594.871 201.194, 595.935 201.430 C 596.999 201.667, 598.799 202.357, 599.935 202.965 C 601.071 203.573, 602 203.774, 602 203.413 C 602 203.051, 602.563 203.222, 603.250 203.793 C 603.938 204.363, 604.725 204.837, 605 204.845 C 605.275 204.853, 606.767 205.341, 608.315 205.930 C 609.863 206.518, 611.466 207, 611.877 207 C 612.288 207, 614.486 207.899, 616.761 208.998 C 619.035 210.098, 621.707 211.123, 622.698 211.277 C 623.689 211.432, 625.063 211.909, 625.750 212.338 C 626.438 212.767, 627 212.797, 627 212.404 C 627 212.011, 627.787 212.382, 628.750 213.227 C 629.712 214.072, 631.625 215.070, 633 215.445 C 635.951 216.249, 640.292 218.240, 641 219.114 C 642.077 220.444, 649.788 223.879, 650.376 223.290 C 650.719 222.947, 651 223.124, 651 223.683 C 651 224.241, 653.025 225.534, 655.500 226.554 C 657.975 227.575, 660 228.699, 660 229.053 C 660 229.407, 661.800 230.508, 664 231.500 C 666.200 232.492, 668 233.674, 668 234.126 C 668 234.579, 669.407 235.676, 671.127 236.566 C 676.874 239.538, 694 256.303, 694 258.958 C 694 259.531, 694.366 260, 694.813 260 C 696.704 260, 703.149 279.289, 703.165 285 C 703.173 287.828, 701.878 295.389, 701.204 296.445 C 700.834 297.025, 700.524 297.747, 700.515 298.049 C 700.482 299.245, 691.452 313.990, 690.750 313.995 C 690.337 313.998, 690 314.702, 690 315.559 C 690 316.416, 689.608 316.876, 689.128 316.579 C 688.649 316.283, 686.003 318.394, 683.249 321.270 C 677.581 327.189, 670.609 333, 669.174 333 C 668.646 333, 667.930 333.739, 667.583 334.643 C 667.237 335.547, 666.683 336.016, 666.353 335.686 C 666.023 335.356, 664.304 336.192, 662.532 337.543 C 660.761 338.894, 658.791 340, 658.156 340 C 657.520 340, 657 340.381, 657 340.847 C 657 341.313, 655.987 342.183, 654.750 342.780 C 653.124 343.564, 710.867 343.883, 862.892 343.932 L 1073.285 344 1072.659 338.250 C 1072.315 335.087, 1071.785 331.375, 1071.481 330 C 1071.178 328.625, 1070.732 326.375, 1070.491 325 C 1069.895 321.600, 1069.185 318.500, 1069.002 318.500 C 1068.919 318.500, 1068.662 317.482, 1068.430 316.237 C 1067.597 311.762, 1064.017 302.676, 1062.370 300.857 C 1061.446 299.836, 1061.011 299, 1061.404 299 C 1061.796 299, 1060.678 296.300, 1058.919 293 C 1057.160 289.700, 1055.334 287, 1054.861 287 C 1054.387 287, 1054 286.325, 1054 285.500 C 1054 284.675, 1053.633 284, 1053.185 284 C 1052.737 284, 1051.619 282.425, 1050.701 280.500 C 1049.783 278.575, 1048.575 277, 1048.016 277 C 1047.457 277, 1047 276.538, 1047 275.973 C 1047 273.481, 1016.447 242.606, 1014.916 243.552 C 1014.412 243.863, 1014 243.678, 1014 243.139 C 1014 241.958, 1002.974 233.884, 994 228.493 C 990.425 226.346, 986.901 224.002, 986.169 223.285 C 985.438 222.568, 984.425 222.237, 983.919 222.550 C 983.414 222.862, 983 222.648, 983 222.072 C 983 221.497, 981.538 220.348, 979.750 219.518 C 977.962 218.688, 975.150 217.186, 973.500 216.181 C 969.126 213.515, 949.395 203.611, 948.070 203.416 C 947.247 203.295, 942.084 201.134, 938.086 199.237 C 936.192 198.338, 933.782 197.539, 932.730 197.462 C 931.677 197.384, 930.520 196.888, 930.158 196.359 C 929.558 195.483, 921.670 192.173, 918.725 191.562 C 918.051 191.422, 916.150 190.754, 914.500 190.078 C 912.850 189.401, 910.712 188.786, 909.750 188.711 C 908.788 188.636, 908 188.295, 908 187.954 C 908 187.613, 907.438 187.294, 906.750 187.247 C 904.433 187.087, 901.143 186.147, 899.131 185.070 C 898.031 184.481, 896.271 184, 895.219 184 C 894.168 184, 892.001 183.352, 890.404 182.560 C 888.807 181.769, 886.375 180.938, 885 180.714 C 883.625 180.490, 881.825 180.054, 881 179.744 C 879.014 178.998, 866.298 175.934, 862.500 175.287 C 858.854 174.665, 856.667 174.218, 856 173.958 C 855.725 173.851, 855.163 173.816, 854.750 173.882 C 854.338 173.947, 854 173.550, 854 173 C 854 172.045, 856.069 171.577, 858.750 171.925 C 859.437 172.015, 860 171.730, 860 171.294 C 860 170.857, 861.013 170.411, 862.250 170.301 C 864.888 170.068, 869.500 169.240, 869.500 169 C 869.500 168.839, 873.173 168.148, 875.750 167.824 C 876.438 167.737, 877 167.367, 877 167 C 877 166.633, 877.563 166.273, 878.250 166.200 C 882.429 165.754, 886.617 164.730, 895.500 161.985 C 901 160.285, 905.950 158.761, 906.500 158.598 C 907.467 158.312, 909.077 157.729, 912.750 156.336 C 913.712 155.971, 914.725 155.620, 915 155.555 C 919.406 154.516, 925 152.372, 925 151.723 C 925 151.260, 925.370 151.110, 925.822 151.390 C 926.274 151.669, 927.805 151.295, 929.225 150.558 C 930.645 149.822, 933.538 148.656, 935.653 147.967 C 937.769 147.279, 940.388 146.104, 941.473 145.358 C 942.557 144.611, 944.048 144, 944.784 144 C 947.328 144, 979.367 127.611, 989.500 121.126 C 991.700 119.718, 995.011 117.737, 996.858 116.723 C 998.706 115.709, 1001.401 113.782, 1002.848 112.440 C 1004.295 111.098, 1006.061 110, 1006.771 110 C 1007.482 110, 1008.322 109.325, 1008.638 108.500 C 1008.955 107.675, 1009.623 107, 1010.122 107 C 1019.892 107, 1063.742 55.490, 1067.171 39.986 C 1067.352 39.169, 1067.786 38.275, 1068.135 38 C 1070.526 36.118, 1073.785 20.829, 1073.934 10.796 L 1074.095 0 866.547 0 C 752.396 0, 659 0.156, 659 0.347 C 659 0.537, 662.712 3.679, 667.250 7.329 C 671.788 10.978, 676.371 15.124, 677.435 16.541 C 678.499 17.959, 680.411 20.329, 681.683 21.809 C 690.046 31.533, 694.556 48.708, 691.269 58.316 C 690.551 60.415, 690.224 62.553, 690.541 63.066 C 690.858 63.580, 690.615 64, 690 64 C 689.385 64, 689.138 64.414, 689.450 64.919 C 689.763 65.425, 689.398 66.460, 688.639 67.218 C 687.880 67.977, 686.570 69.926, 685.727 71.549 C 682.028 78.674, 676.305 84.966, 666 93.240 C 661.875 96.552, 658.275 99.571, 658 99.949 C 656.334 102.242, 624.296 118.192, 611.500 123.099 C 608.200 124.364, 605.072 125.760, 604.550 126.200 C 604.027 126.640, 602.841 127, 601.914 127 C 600.987 127, 598.972 127.652, 597.436 128.449 C 595.900 129.246, 594.274 129.669, 593.822 129.390 C 593.370 129.110, 593 129.385, 593 130 C 593 130.615, 592.583 130.860, 592.074 130.546 C 591.564 130.231, 588.752 130.809, 585.824 131.831 C 574.916 135.639, 570.037 137.174, 567.800 137.504 C 566.535 137.690, 564.600 138.099, 563.500 138.413 C 562.400 138.727, 558.350 139.698, 554.500 140.571 C 550.650 141.444, 546.825 142.415, 546 142.730 C 543.822 143.561, 541.945 143.991, 538 144.562 C 536.075 144.841, 532.896 145.499, 530.936 146.023 C 528.975 146.548, 524.475 147.426, 520.936 147.975 C 517.396 148.524, 513.263 149.210, 511.752 149.499 C 510.240 149.788, 507.765 150.213, 506.252 150.443 C 500.575 151.306, 490.411 153.006, 488 153.496 C 485.251 154.054, 473.381 155.241, 471 155.196 C 470.175 155.181, 468.825 155.401, 468 155.687 C 467.175 155.972, 464.250 156.349, 461.500 156.524 C 458.750 156.699, 454.025 157.133, 451 157.488 C 445.328 158.155, 442.831 158.364, 427.500 159.458 C 413.359 160.467, 405.317 160.824, 379.809 161.573 L 356 162.272 356 81.136 L 356 0 195 0 L 34 0 34 172 M 35 435 L 35 506 57 506 L 79 506 79 488.926 L 79 471.852 84.750 465.689 C 87.912 462.299, 91.287 458.792, 92.250 457.896 C 93.212 456.999, 94 455.729, 94 455.074 C 94 454.418, 94.450 454.160, 95 454.500 C 95.550 454.840, 96 454.390, 96 453.500 C 96 452.610, 96.418 452.140, 96.928 452.456 C 97.438 452.771, 98.146 452.116, 98.500 451 C 98.854 449.884, 99.562 449.229, 100.072 449.544 C 100.582 449.860, 101.002 449.529, 101.004 448.809 C 101.006 448.089, 101.996 449.075, 103.203 451 C 104.411 452.925, 105.309 454.837, 105.200 455.250 C 105.090 455.663, 105.450 456, 106 456 C 106.550 456, 106.947 456.337, 106.882 456.750 C 106.551 458.847, 107.124 460.042, 108.155 459.405 C 108.839 458.982, 109.039 459.128, 108.645 459.765 C 108.280 460.356, 108.693 461.550, 109.562 462.419 C 110.432 463.289, 110.831 464, 110.449 464 C 110.067 464, 110.277 464.629, 110.915 465.398 C 111.553 466.167, 112.279 467.853, 112.528 469.145 C 112.777 470.436, 113.435 471.645, 113.990 471.830 C 114.546 472.015, 115 472.804, 115 473.583 C 115 474.363, 115.525 475, 116.167 475 C 116.808 475, 117.065 475.268, 116.738 475.596 C 116.410 475.923, 116.953 477.637, 117.945 479.403 C 122.851 488.136, 123.601 489.738, 123.875 492.059 C 123.944 492.641, 124.445 492.843, 124.989 492.507 C 125.555 492.157, 125.723 492.558, 125.382 493.448 C 125.054 494.302, 125.213 495, 125.735 495 C 126.257 495, 127.217 496.780, 127.868 498.955 C 130.065 506.288, 129.076 506.065, 159.030 505.968 L 185.862 505.880 183.765 502.190 C 182.611 500.161, 180.649 497.375, 179.405 496 C 178.161 494.625, 176.856 492.338, 176.505 490.918 C 176.155 489.499, 174.754 487.136, 173.393 485.668 C 172.033 484.201, 171.193 483, 171.528 483 C 171.862 483, 171.318 481.761, 170.318 480.246 C 168.090 476.871, 166.968 475.035, 162.833 468 C 161.055 464.975, 158.169 460.475, 156.421 458 C 154.673 455.525, 152.932 452.488, 152.554 451.250 C 152.175 450.012, 151.446 449, 150.933 449 C 150.420 449, 150 448.325, 150 447.500 C 150 446.675, 149.523 446, 148.941 446 C 148.359 446, 148.160 445.550, 148.500 445 C 148.840 444.450, 148.694 444, 148.176 444 C 147.657 444, 146.984 443.212, 146.678 442.250 C 145.856 439.656, 142.714 434.701, 141 433.295 C 140.175 432.618, 139.950 432.042, 140.500 432.016 C 141.167 431.985, 141.167 431.724, 140.500 431.235 C 139.350 430.390, 137.756 427.888, 135.414 423.250 C 134.511 421.462, 133.388 420, 132.918 420 C 129.774 420, 138.292 410.157, 164.851 383.101 C 172.194 375.620, 179.394 368.263, 180.851 366.751 L 183.500 364.002 154.152 364.001 L 124.803 364 121.485 367.730 C 119.659 369.781, 118.360 371.774, 118.597 372.158 C 118.835 372.542, 118.123 373.144, 117.015 373.495 C 115.907 373.847, 115 374.467, 115 374.872 C 115 375.277, 113.537 377.231, 111.750 379.214 C 105.649 385.981, 103 389.205, 103 389.864 C 103 390.226, 101.676 391.615, 100.059 392.951 C 98.441 394.288, 97.343 395.745, 97.618 396.191 C 97.893 396.636, 97.701 397, 97.191 397 C 96.681 397, 92.782 401.093, 88.527 406.096 C 78.587 417.784, 78.838 418.254, 79.199 388.648 L 79.500 363.998 57.250 363.999 L 35 364 35 435 M 899.243 434.750 L 899.500 505.500 919.750 505.771 L 940 506.041 940 492.405 L 940 478.769 947.191 471.884 C 954.077 465.293, 955.799 463.898, 954.543 465.931 C 954.226 466.443, 954.369 467.110, 954.859 467.413 C 955.350 467.716, 959.959 476.505, 965.103 486.944 L 974.456 505.924 996.728 505.920 C 1008.978 505.918, 1019 505.548, 1019 505.097 C 1019 504.647, 1017.875 502.621, 1016.500 500.595 C 1015.125 498.569, 1014 496.481, 1014 495.956 C 1014 495.430, 1013.523 495, 1012.941 495 C 1012.359 495, 1012.118 494.618, 1012.406 494.151 C 1012.695 493.685, 1012.159 492.430, 1011.215 491.362 C 1010.272 490.295, 1009.371 488.829, 1009.214 488.104 C 1009.057 487.379, 1008.270 486.127, 1007.464 485.321 C 1006.659 484.516, 1006 483.188, 1006 482.370 C 1006 481.500, 1005.521 481.178, 1004.845 481.595 C 1004.141 482.031, 1003.962 481.870, 1004.387 481.183 C 1004.974 480.233, 1002.829 475.680, 1001.003 474 C 1000.704 473.725, 999.882 472.375, 999.177 471 C 994.852 462.564, 993.884 461, 992.992 461 C 992.446 461, 992.112 460.663, 992.248 460.250 C 992.385 459.837, 991.399 457.700, 990.056 455.500 C 988.714 453.300, 987.570 451.275, 987.513 451 C 987.353 450.225, 983.122 442.702, 981.777 440.802 C 980.787 439.402, 980.961 438.768, 982.769 437.200 C 983.976 436.153, 984.672 435.005, 984.315 434.648 C 983.958 434.292, 984.239 434, 984.938 434 C 985.637 434, 990.578 429.613, 995.918 424.250 C 1001.258 418.887, 1008.186 412.171, 1011.314 409.324 C 1014.441 406.477, 1017 403.919, 1017 403.640 C 1017 403.360, 1006.280 403.089, 993.178 403.036 L 969.356 402.941 966.678 405.423 C 965.205 406.788, 964 408.211, 964 408.586 C 964 408.961, 962.930 410.220, 961.623 411.384 C 958.952 413.763, 945.492 429.455, 942.652 433.503 C 939.903 437.420, 939.949 438.002, 939.947 399.641 L 939.945 364 919.466 364 L 898.987 364 899.243 434.750 M 1032.443 365.287 C 1032.163 366.018, 1032.061 371.990, 1032.217 378.558 L 1032.500 390.500 1052.500 390.500 L 1072.500 390.500 1072.500 377.500 L 1072.500 364.500 1052.727 364.229 C 1037.009 364.013, 1032.849 364.230, 1032.443 365.287 M 230.782 401.596 C 219.775 403.253, 208.322 408.561, 204.321 413.860 C 202.809 415.862, 200.990 418.099, 200.277 418.831 C 199.565 419.562, 199.237 420.575, 199.550 421.081 C 199.862 421.586, 199.685 422, 199.157 422 C 197.914 422, 196.217 426.879, 196.376 429.996 C 196.525 432.904, 198.909 433.549, 212.975 434.486 C 218.186 434.832, 222.644 435.311, 222.883 435.549 C 223.121 435.788, 224.006 435.424, 224.850 434.741 C 226.007 433.805, 226.205 433.799, 225.655 434.714 C 225.124 435.599, 226.150 435.904, 229.444 435.838 C 231.929 435.788, 233.771 435.439, 233.539 435.063 C 233.306 434.687, 234.439 432.831, 236.056 430.939 C 237.672 429.048, 238.996 427.088, 238.998 426.583 C 238.999 426.079, 239.266 425.932, 239.590 426.257 C 239.915 426.582, 241.936 426.228, 244.082 425.471 C 247.530 424.254, 256.009 424.137, 261.149 425.235 C 263.813 425.804, 265.720 427.851, 266.309 430.772 C 266.612 432.273, 267.141 434.225, 267.484 435.112 C 268.233 437.046, 260.923 440.219, 251.500 442.051 C 248.200 442.692, 245.009 443.614, 244.408 444.100 C 243.807 444.585, 243.113 444.780, 242.865 444.532 C 242.137 443.804, 229.769 446.950, 228.122 448.282 C 226.930 449.246, 226.773 449.239, 227.367 448.250 C 227.780 447.563, 227.641 447, 227.059 447 C 226.477 447, 226 447.459, 226 448.020 C 226 448.580, 224.913 448.842, 223.585 448.601 C 222.257 448.360, 220.869 448.464, 220.502 448.832 C 220.134 449.199, 219.421 449.556, 218.917 449.625 C 218.413 449.694, 217.662 449.858, 217.250 449.990 C 216.838 450.123, 216.050 450.298, 215.500 450.379 C 212.599 450.810, 207 453.285, 207 454.137 C 207 454.676, 206.582 454.860, 206.071 454.544 C 204.806 453.762, 195 463.853, 195 465.936 C 195 466.851, 194.575 468.028, 194.056 468.550 C 192.823 469.790, 191.491 484.432, 192.678 483.699 C 193.169 483.395, 193.631 483.901, 193.703 484.823 C 193.965 488.162, 194.660 490.122, 196.233 491.959 C 197.114 492.989, 197.573 494.094, 197.251 494.415 C 196.930 494.737, 197.192 495, 197.833 495 C 198.475 495, 199 495.675, 199 496.500 C 199 497.325, 199.675 498, 200.500 498 C 201.325 498, 202 498.702, 202 499.559 C 202 500.416, 202.422 500.857, 202.939 500.538 C 203.455 500.219, 204.242 500.581, 204.689 501.343 C 210.888 511.929, 253.660 509.225, 264.522 497.560 C 267.684 494.165, 269.991 493.631, 270.048 496.281 C 270.074 497.502, 270.866 500.075, 271.806 502 L 273.517 505.500 291.758 505.773 C 309.491 506.038, 310 505.989, 310 504.023 C 310 502.910, 309.625 502, 309.167 502 C 308.708 502, 308.294 501.438, 308.247 500.750 C 308.199 500.063, 307.819 498.375, 307.401 497 C 306.983 495.625, 306.495 481.675, 306.317 466 C 306.139 450.325, 305.958 437.275, 305.914 437 C 305.871 436.725, 305.679 434.595, 305.488 432.268 C 305.296 429.940, 304.784 427.465, 304.349 426.768 C 303.914 426.070, 303.439 424.740, 303.294 423.811 C 302.512 418.795, 291.771 406.020, 288.314 405.994 C 287.866 405.990, 286.212 405.316, 284.637 404.495 C 283.063 403.674, 280.691 403.198, 279.367 403.438 C 278.022 403.682, 277.215 403.461, 277.539 402.937 C 277.857 402.422, 276.629 401.955, 274.809 401.901 C 272.989 401.846, 270.150 401.579, 268.500 401.306 C 261.758 400.194, 238.931 400.369, 230.782 401.596 M 554.512 400.822 C 553.762 401.571, 553.234 401.640, 546.691 401.848 C 544.046 401.931, 542.091 402.337, 542.345 402.750 C 542.600 403.163, 541.614 403.561, 540.155 403.635 C 535.553 403.870, 531.366 405.518, 528.250 408.323 C 527.013 409.437, 526 409.957, 526 409.478 C 526 408.999, 524.443 410.117, 522.539 411.962 C 520.635 413.807, 519.252 415.599, 519.465 415.943 C 519.677 416.287, 518.571 418.035, 517.006 419.828 C 514.251 422.983, 512.207 429.909, 513.442 431.906 C 514.085 432.947, 518.744 433.729, 528.500 434.432 C 531.800 434.670, 537.759 435.178, 541.742 435.562 C 549.334 436.292, 552.667 435.181, 551.557 432.288 C 551.263 431.522, 551.435 431.151, 551.939 431.463 C 552.444 431.774, 553.134 431.152, 553.475 430.079 C 554.111 428.075, 562.360 424.268, 564.850 424.829 C 565.593 424.997, 565.919 424.677, 565.574 424.119 C 565.218 423.544, 565.716 423.248, 566.723 423.435 C 567.700 423.617, 570.821 424.080, 573.657 424.464 C 579.697 425.282, 583.382 428.657, 583.703 433.666 C 583.896 436.673, 582.208 439.299, 580.355 438.874 C 579.885 438.765, 578.150 439.270, 576.500 439.995 C 574.850 440.720, 572.375 441.478, 571 441.681 C 569.625 441.883, 565.575 442.766, 562 443.642 C 558.425 444.518, 554.825 445.373, 554 445.541 C 553.175 445.709, 552.500 445.910, 552.500 445.987 C 552.500 446.065, 551.150 446.305, 549.500 446.521 C 547.850 446.737, 545.600 447.124, 544.500 447.381 C 543.400 447.637, 541.461 447.881, 540.191 447.923 C 538.921 447.966, 538.102 448.356, 538.371 448.791 C 538.640 449.226, 537.409 449.620, 535.635 449.668 C 526.575 449.909, 507.092 465.084, 509.852 469.750 C 509.933 469.887, 509.959 470.113, 509.908 470.250 C 509.116 472.401, 509.298 485.126, 510.147 487 C 513.625 494.672, 514.870 496.529, 518.603 499.612 C 520.860 501.475, 523.222 503, 523.853 503 C 524.484 503, 525 503.450, 525 504 C 525 504.550, 525.337 504.929, 525.750 504.841 C 526.163 504.754, 527.175 504.939, 528 505.253 C 533.233 507.244, 536.662 507.765, 545.535 507.915 C 557.509 508.118, 569.084 505.904, 574.054 502.462 C 576.008 501.108, 577.925 500, 578.312 500 C 578.700 500, 580.326 498.834, 581.927 497.408 C 584.758 494.885, 586.755 494.281, 586.250 496.100 C 586.113 496.595, 586.477 497, 587.059 497 C 587.641 497, 587.852 497.430, 587.527 497.956 C 587.202 498.482, 587.609 500.522, 588.431 502.489 L 589.926 506.067 608.463 505.955 C 627.567 505.840, 628.013 505.730, 625.811 501.684 C 623.877 498.129, 623.789 496.907, 623.044 463 C 622.393 433.401, 622.058 428.725, 620.247 424 C 619.931 423.175, 619.615 422.275, 619.544 422 C 617.949 415.780, 602.754 401.913, 600.264 404.403 C 599.945 404.722, 599.193 404.586, 598.592 404.101 C 595.364 401.494, 556.715 398.619, 554.512 400.822 M 680.500 400.710 C 679.400 400.905, 676.475 401.600, 674 402.254 C 671.525 402.908, 668.938 403.324, 668.250 403.178 C 667.563 403.032, 667 403.382, 667 403.956 C 667 404.530, 665.698 405, 664.107 405 C 662.406 405, 660.967 405.644, 660.614 406.563 C 660.284 407.423, 659.614 407.879, 659.125 407.577 C 657.339 406.474, 649.229 414.031, 646.971 418.902 C 646.309 420.331, 645.376 422.270, 644.900 423.210 C 644.423 424.151, 644.298 425.614, 644.623 426.460 C 644.948 427.307, 644.738 428, 644.155 428 C 643.513 428, 643.225 429.868, 643.424 432.750 C 643.605 435.363, 643.853 437.500, 643.975 437.500 C 644.098 437.500, 644.312 438.782, 644.450 440.349 C 644.588 441.916, 645.257 443.541, 645.936 443.961 C 646.615 444.380, 647.132 445.011, 647.085 445.362 C 646.833 447.250, 647.385 448.127, 651.645 452.611 C 654.200 455.300, 655.967 456.825, 655.571 456 C 655.175 455.175, 655.560 455.374, 656.426 456.441 C 657.292 457.509, 658 457.993, 658 457.517 C 658 457.041, 659.013 457.575, 660.250 458.704 C 662.421 460.685, 684.157 466.459, 687.179 465.857 C 687.906 465.713, 690.221 466.182, 692.325 466.900 C 694.429 467.617, 697.241 467.996, 698.575 467.741 C 699.909 467.486, 701 467.665, 701 468.139 C 701 468.612, 701.943 469, 703.096 469 C 706.245 469, 710.799 472.061, 711.438 474.609 C 712.626 479.341, 707.753 485, 702.491 485 C 701.606 485, 701.107 485.364, 701.382 485.810 C 702.078 486.936, 690.568 485.478, 686.958 483.983 C 685.331 483.309, 684 482.362, 684 481.879 C 684 481.395, 683.374 481, 682.608 481 C 681.843 481, 680.934 479.875, 680.589 478.500 C 680.244 477.125, 679.494 476, 678.922 476 C 678.350 476, 678.183 475.512, 678.552 474.917 C 679.023 474.154, 677.042 474.031, 671.861 474.502 C 667.812 474.870, 662.250 475.375, 659.500 475.624 C 656.750 475.874, 652.025 476.228, 649 476.413 C 645.975 476.597, 643.388 476.861, 643.250 476.999 C 642.976 477.274, 641.513 477.680, 640.088 477.875 C 639.341 477.978, 639.311 480.835, 640.048 481.750 C 640.159 481.887, 640.327 482.337, 640.420 482.750 C 640.923 484.966, 645.182 492, 646.020 492 C 646.559 492, 647 492.584, 647 493.297 C 647 495.577, 658.614 503.962, 660.774 503.242 C 661.438 503.021, 662.734 503.591, 663.652 504.509 C 664.699 505.556, 666.382 506.024, 668.161 505.763 C 669.723 505.534, 671 505.623, 671 505.960 C 671 507.886, 716.092 508.227, 716.732 506.306 C 716.950 505.650, 717.775 505.360, 718.565 505.663 C 719.354 505.966, 720.788 505.867, 721.750 505.443 C 722.712 505.020, 723.760 504.634, 724.078 504.586 C 729.017 503.849, 744.775 491.064, 743.430 488.886 C 743.129 488.399, 743.290 488, 743.789 488 C 745.272 488, 747.899 478.465, 747.359 475.041 C 747.085 473.299, 747.397 471.227, 748.052 470.437 C 748.980 469.319, 748.970 469, 748.006 469 C 747.247 469, 746.976 468.202, 747.305 466.941 C 748.051 464.089, 743.378 455.457, 739.242 452.048 C 732.137 446.191, 714.026 439.230, 713.985 442.340 C 713.974 443.177, 713.755 443.163, 713.200 442.289 C 712.423 441.067, 706.879 439.983, 699.480 439.607 C 697.269 439.494, 695.019 439.131, 694.480 438.799 C 693.941 438.466, 691.250 437.877, 688.500 437.489 C 682.260 436.608, 678.833 434.600, 679.702 432.334 C 680.105 431.283, 679.944 430.917, 679.263 431.337 C 677.323 432.537, 679.086 428.261, 681.344 426.291 C 685.179 422.945, 690.362 421.747, 695.208 423.088 C 697.569 423.740, 700.063 424.288, 700.750 424.304 C 701.438 424.320, 702 424.735, 702 425.226 C 702 425.716, 702.450 425.840, 703 425.500 C 703.550 425.160, 704 425.297, 704 425.805 C 704 428.013, 709.334 432.029, 711.397 431.374 C 712.545 431.010, 715.850 430.730, 718.742 430.753 C 721.634 430.776, 724.002 430.503, 724.005 430.147 C 724.008 429.791, 728.325 429.420, 733.598 429.323 C 738.872 429.226, 743.415 428.919, 743.693 428.640 C 745.755 426.579, 734.811 409, 731.466 409 C 730.867 409, 729.411 408.100, 728.231 407 C 727.050 405.900, 725.278 404.875, 724.292 404.721 C 723.306 404.568, 722.017 404.140, 721.427 403.771 C 717.946 401.596, 688.098 399.363, 680.500 400.710 M 807.512 400.822 C 806.762 401.571, 806.234 401.640, 799.691 401.848 C 797.046 401.931, 795.091 402.337, 795.345 402.750 C 795.600 403.163, 794.614 403.561, 793.155 403.635 C 788.553 403.870, 784.366 405.518, 781.250 408.323 C 780.013 409.437, 779 409.957, 779 409.478 C 779 408.999, 777.443 410.117, 775.539 411.962 C 773.635 413.807, 772.252 415.599, 772.465 415.943 C 772.677 416.287, 771.571 418.035, 770.006 419.828 C 767.251 422.983, 765.207 429.909, 766.442 431.906 C 767.085 432.947, 771.744 433.729, 781.500 434.432 C 784.800 434.670, 790.759 435.178, 794.742 435.562 C 802.334 436.292, 805.667 435.181, 804.557 432.288 C 804.263 431.522, 804.435 431.151, 804.939 431.463 C 805.444 431.774, 806.134 431.152, 806.475 430.079 C 807.111 428.075, 815.360 424.268, 817.850 424.829 C 818.593 424.997, 818.919 424.677, 818.574 424.119 C 818.218 423.544, 818.716 423.248, 819.723 423.435 C 820.700 423.617, 823.821 424.080, 826.657 424.464 C 832.697 425.282, 836.382 428.657, 836.703 433.666 C 836.896 436.673, 835.208 439.299, 833.355 438.874 C 832.885 438.765, 831.150 439.270, 829.500 439.995 C 827.850 440.720, 825.375 441.478, 824 441.681 C 822.625 441.883, 818.575 442.766, 815 443.642 C 811.425 444.518, 807.825 445.373, 807 445.541 C 806.175 445.709, 805.500 445.910, 805.500 445.987 C 805.500 446.065, 804.150 446.305, 802.500 446.521 C 800.850 446.737, 798.600 447.124, 797.500 447.381 C 796.400 447.637, 794.461 447.881, 793.191 447.923 C 791.921 447.966, 791.102 448.356, 791.371 448.791 C 791.640 449.226, 790.409 449.620, 788.635 449.668 C 779.575 449.909, 760.092 465.084, 762.852 469.750 C 762.933 469.887, 762.959 470.113, 762.908 470.250 C 762.116 472.401, 762.298 485.126, 763.147 487 C 766.625 494.672, 767.870 496.529, 771.603 499.612 C 773.860 501.475, 776.222 503, 776.853 503 C 777.484 503, 778 503.450, 778 504 C 778 504.550, 778.337 504.929, 778.750 504.841 C 779.163 504.754, 780.175 504.939, 781 505.253 C 786.233 507.244, 789.662 507.765, 798.535 507.915 C 810.509 508.118, 822.084 505.904, 827.054 502.462 C 829.008 501.108, 830.925 500, 831.312 500 C 831.700 500, 833.326 498.834, 834.927 497.408 C 837.758 494.885, 839.755 494.281, 839.250 496.100 C 839.113 496.595, 839.477 497, 840.059 497 C 840.641 497, 840.852 497.430, 840.527 497.956 C 840.202 498.482, 840.609 500.522, 841.431 502.489 L 842.926 506.067 861.463 505.955 C 880.567 505.840, 881.013 505.730, 878.811 501.684 C 876.877 498.129, 876.789 496.907, 876.044 463 C 875.393 433.401, 875.058 428.725, 873.247 424 C 872.931 423.175, 872.615 422.275, 872.544 422 C 870.949 415.780, 855.754 401.913, 853.264 404.403 C 852.945 404.722, 852.173 404.558, 851.548 404.040 C 848.442 401.462, 809.703 398.631, 807.512 400.822 M 318 404.277 C 318 404.980, 318.701 406.555, 319.557 407.777 C 320.413 409, 320.808 410, 320.434 410 C 320.061 410, 320.315 410.675, 321 411.500 C 321.685 412.325, 321.920 413, 321.524 413 C 321.127 413, 321.748 414.602, 322.903 416.560 C 324.058 418.518, 324.440 419.802, 323.752 419.413 C 322.750 418.848, 322.750 418.976, 323.750 420.053 C 324.438 420.794, 325 422.210, 325 423.200 C 325 424.190, 325.477 425, 326.059 425 C 326.641 425, 326.865 425.409, 326.556 425.910 C 326.247 426.410, 326.971 428.997, 328.165 431.660 C 329.359 434.322, 330.430 436.837, 330.543 437.250 C 330.657 437.663, 330.863 438.225, 331 438.500 C 331.137 438.775, 331.306 439.412, 331.375 439.917 C 331.444 440.421, 331.837 441.171, 332.250 441.583 C 332.663 441.996, 333 443.293, 333 444.467 C 333 445.640, 333.534 447.134, 334.186 447.786 C 334.839 448.439, 335.502 449.818, 335.659 450.850 C 335.817 451.883, 336.476 454.026, 337.123 455.614 C 338.823 459.780, 343.922 473.942, 345.094 477.750 C 345.644 479.538, 346.410 481, 346.797 481.001 C 347.184 481.001, 347.560 482.046, 347.633 483.323 C 347.804 486.309, 355.010 504.268, 356.425 505.235 C 357.016 505.639, 365.191 505.976, 374.592 505.985 L 391.683 506 393.452 499.750 C 394.425 496.313, 395.554 492.600, 395.961 491.500 C 397.220 488.096, 399.098 482.574, 399.530 481 C 399.757 480.175, 400.352 477.925, 400.852 476 C 401.352 474.075, 402.649 470.475, 403.734 468 C 404.819 465.525, 405.550 462.488, 405.359 461.250 C 405.169 460.012, 405.454 459, 405.994 459 C 406.535 459, 407.264 457.200, 407.616 455 C 407.968 452.800, 408.622 451, 409.070 451 C 409.519 451, 409.712 450.100, 409.500 449 C 409.288 447.900, 409.566 447, 410.116 447 C 410.667 447, 410.797 446.480, 410.405 445.845 C 409.997 445.186, 410.127 444.960, 410.708 445.320 C 411.268 445.666, 412.306 448.022, 413.016 450.556 C 413.725 453.089, 414.944 455.801, 415.724 456.581 C 416.740 457.597, 416.795 458, 415.916 458 C 415.156 458, 415.414 458.826, 416.595 460.172 C 417.643 461.366, 417.893 461.987, 417.150 461.551 C 416.023 460.889, 416.017 461.150, 417.115 463.129 C 417.838 464.433, 418.454 465.725, 418.484 466 C 418.706 468.016, 426.635 490.624, 427.284 491.092 C 427.736 491.417, 428.010 492.092, 427.894 492.592 C 427.778 493.091, 427.942 494.175, 428.258 495 C 428.575 495.825, 429.434 498.525, 430.167 501 L 431.500 505.500 449.500 505.771 L 467.500 506.042 468.847 502.271 C 469.588 500.197, 470.263 497.530, 470.347 496.345 C 470.431 495.161, 470.837 494.400, 471.250 494.655 C 471.663 494.909, 472.033 494.754, 472.074 494.309 C 472.342 491.396, 473.255 488.267, 474.755 485.124 C 475.706 483.131, 476.544 481.163, 476.617 480.750 C 476.690 480.337, 476.841 479.887, 476.952 479.750 C 477.062 479.613, 477.288 478.821, 477.453 477.992 C 477.856 475.961, 485.860 454.963, 487.090 452.709 C 487.628 451.724, 487.801 450.487, 487.475 449.959 C 487.149 449.432, 487.323 449, 487.862 449 C 488.400 449, 489.159 447.552, 489.548 445.783 C 489.936 444.013, 490.610 441.876, 491.044 441.033 C 492.145 438.895, 494.240 433.147, 494.048 432.793 C 493.961 432.632, 495.047 429.882, 496.462 426.682 C 497.877 423.483, 498.775 420.445, 498.458 419.932 C 498.141 419.420, 498.302 419, 498.816 419 C 499.612 419, 501.079 414.303, 500.891 412.357 C 500.857 412.009, 501.340 411.408, 501.965 411.022 C 502.589 410.636, 503.173 409.348, 503.263 408.160 C 503.352 406.972, 503.705 406, 504.046 406 C 504.387 406, 504.667 405.351, 504.667 404.559 C 504.667 403.347, 501.628 403.148, 485.625 403.309 L 466.583 403.500 465.701 407 C 465.216 408.925, 464.747 411.512, 464.659 412.750 C 464.572 413.988, 464.088 415, 463.583 415 C 463.079 415, 462.938 415.271, 463.269 415.603 C 463.601 415.934, 463.417 417.397, 462.861 418.853 C 462.305 420.309, 461.662 422.625, 461.431 424 C 460.953 426.860, 457.004 442.744, 456.212 445 C 455.922 445.825, 455.775 447.063, 455.886 447.750 C 455.997 448.438, 455.609 449, 455.025 449 C 454.390 449, 454.215 450.008, 454.589 451.500 C 454.934 452.875, 454.793 454, 454.275 454 C 453.757 454, 453.286 454.563, 453.228 455.250 C 452.957 458.444, 450.774 465.602, 449.796 466.500 C 449.049 467.185, 448.919 467.123, 449.380 466.302 C 449.751 465.643, 449.102 462.493, 447.938 459.302 C 446.774 456.111, 445.442 452.150, 444.978 450.500 C 443.841 446.451, 441.673 440.797, 440.637 439.176 C 440.172 438.448, 439.697 436.502, 439.583 434.851 C 439.468 433.200, 438.903 431.546, 438.326 431.175 C 437.748 430.804, 437.024 429.150, 436.716 427.500 C 435.950 423.394, 432.553 412.158, 430.973 408.500 C 430.260 406.850, 429.747 405.170, 429.833 404.768 C 430.144 403.304, 425.182 402.934, 409 403.214 C 395.181 403.454, 392.484 403.744, 392.399 405 C 392.344 405.825, 391.542 408.207, 390.617 410.294 C 389.693 412.381, 389.202 414.518, 389.527 415.044 C 389.852 415.570, 389.641 416, 389.059 416 C 388.477 416, 388 416.845, 388 417.878 C 388 418.911, 387.311 421.406, 386.468 423.422 C 385.626 425.438, 385.180 427.482, 385.477 427.963 C 385.775 428.445, 385.427 429.438, 384.703 430.169 C 382.992 431.901, 381.829 435, 382.890 435 C 383.346 435, 382.702 437.108, 381.461 439.684 C 380.219 442.260, 379.431 444.960, 379.709 445.684 C 379.987 446.408, 379.668 447, 379 447 C 378.332 447, 378.045 447.674, 378.362 448.500 C 378.678 449.325, 378.576 450, 378.135 450 C 377.694 450, 377.271 450.563, 377.196 451.250 C 377.120 451.938, 376.932 453.625, 376.779 455 C 376.626 456.375, 375.938 458.095, 375.250 458.821 C 374.563 459.548, 373.944 460.786, 373.875 461.571 C 373.636 464.306, 373.496 464.837, 372.845 465.488 C 372.485 465.848, 371.870 464.648, 371.478 462.822 C 371.086 460.995, 370.508 459.069, 370.195 458.542 C 369.882 458.016, 369.494 456.666, 369.335 455.542 C 368.947 452.822, 368.512 450.912, 367.728 448.500 C 367.371 447.400, 366.845 445.375, 366.560 444 C 364.812 435.563, 360.403 419.406, 359.713 418.908 C 359.263 418.583, 359.009 417.908, 359.150 417.408 C 359.517 416.100, 358.104 408.971, 356.838 405.750 L 355.757 403 336.879 403 C 322.226 403, 318 403.286, 318 404.277 M 1033.250 403.651 C 1031.932 404.195, 1031.314 501.048, 1032.607 504.418 C 1033.739 507.367, 1071.785 506.730, 1072.508 503.750 C 1072.808 502.512, 1072.930 479.450, 1072.777 452.500 L 1072.500 403.500 1053.500 403.318 C 1043.050 403.218, 1033.938 403.368, 1033.250 403.651 M 262.874 458.356 C 261.568 459.015, 259.825 459.527, 259 459.493 C 258.175 459.460, 257.235 459.808, 256.910 460.267 C 256.586 460.725, 255.236 461.157, 253.910 461.227 C 252.585 461.297, 250.851 461.837, 250.058 462.427 C 248.917 463.276, 248.796 463.187, 249.480 462 C 250.135 460.863, 249.878 460.907, 248.422 462.179 C 247.365 463.102, 246.050 463.895, 245.500 463.941 C 243.333 464.121, 240.378 465.348, 237.887 467.102 C 236.450 468.113, 234.988 468.729, 234.637 468.470 C 234.287 468.212, 234.204 468.279, 234.452 468.619 C 234.701 468.960, 234.251 469.892, 233.452 470.690 C 230.425 473.718, 232.663 482.532, 236.873 484.157 C 241.110 485.793, 249 486.819, 249 485.734 C 249 485.202, 249.900 485.002, 251 485.290 C 252.100 485.577, 253 485.454, 253 485.015 C 253 484.576, 254.125 483.934, 255.500 483.589 C 256.875 483.244, 258 482.520, 258 481.981 C 258 481.441, 258.666 481, 259.480 481 C 262.201 481, 266.674 471.528, 266.876 465.337 C 266.978 462.243, 267.269 459.374, 267.524 458.961 C 268.391 457.559, 265.261 457.152, 262.874 458.356 M 579.500 458.675 C 578.400 458.918, 576.825 459.393, 576 459.731 C 575.175 460.069, 572.025 460.942, 569 461.671 C 561.864 463.391, 561.888 463.383, 559.229 464.844 C 557.980 465.531, 556.565 465.849, 556.084 465.552 C 555.603 465.255, 554.927 465.748, 554.581 466.649 C 554.236 467.549, 553.666 468, 553.316 467.649 C 552.306 466.639, 550.153 470.366, 549.138 474.881 C 547.644 481.531, 553.677 486.211, 563.236 485.819 C 566.956 485.666, 570 485.238, 570 484.868 C 570 484.498, 571.237 483.739, 572.750 483.181 C 575.684 482.099, 581.097 477.701, 581.186 476.327 C 581.215 475.872, 581.636 474.458, 582.120 473.185 C 582.604 471.912, 583 470.245, 583 469.482 C 583 468.719, 583.507 466.981, 584.127 465.621 C 585.432 462.757, 584.537 457.946, 582.731 458.116 C 582.054 458.180, 580.600 458.431, 579.500 458.675 M 832.500 458.675 C 831.400 458.918, 829.825 459.393, 829 459.731 C 828.175 460.069, 825.025 460.942, 822 461.671 C 814.864 463.391, 814.888 463.383, 812.229 464.844 C 810.980 465.531, 809.565 465.849, 809.084 465.552 C 808.603 465.255, 807.927 465.748, 807.581 466.649 C 807.236 467.549, 806.666 468, 806.316 467.649 C 805.306 466.639, 803.153 470.366, 802.138 474.881 C 800.644 481.531, 806.677 486.211, 816.236 485.819 C 819.956 485.666, 823 485.238, 823 484.868 C 823 484.498, 824.237 483.739, 825.750 483.181 C 828.684 482.099, 834.097 477.701, 834.186 476.327 C 834.215 475.872, 834.636 474.458, 835.120 473.185 C 835.604 471.912, 836 470.245, 836 469.482 C 836 468.719, 836.507 466.981, 837.127 465.621 C 838.432 462.757, 837.537 457.946, 835.731 458.116 C 835.054 458.180, 833.600 458.431, 832.500 458.675" stroke="none" fill="#049434" fill-rule="evenodd"/></svg>