<svg xmlns="http://www.w3.org/2000/svg" width="500" height="337" viewBox="0 0 2560 1728" version="1.1"><path d="M 213.500 1318.688 C 124.330 1321.434, 62.067 1347.001, 35.879 1391.625 C 26.276 1407.987, 22 1424.118, 22 1443.979 C 22 1500.091, 52.166 1531.459, 123.499 1549.525 C 158.775 1558.459, 205.052 1565.131, 251.500 1567.981 C 290.933 1570.400, 310.565 1579.839, 311.805 1596.975 C 312.336 1604.317, 310.858 1608.810, 306.403 1613.397 C 299.643 1620.358, 287.649 1624.402, 268.901 1626.041 C 255.333 1627.228, 242.945 1626.143, 233.257 1622.919 C 219.907 1618.477, 204.666 1605.425, 195 1590.159 L 190.500 1583.051 102.097 1583.026 L 13.694 1583 14.323 1594.250 C 15.580 1616.758, 23.434 1638.607, 35.913 1654.310 C 59.298 1683.737, 104.707 1701.919, 173.500 1709.399 C 222.564 1714.735, 294.381 1714.058, 332 1707.905 C 388.251 1698.705, 429.019 1679.033, 452.429 1649.794 C 460.275 1639.995, 468.151 1624.670, 471.082 1613.500 C 473.741 1603.364, 474.673 1585.027, 473.081 1574.144 C 467.133 1533.462, 435.254 1503.139, 378.479 1484.160 C 349.185 1474.368, 323.372 1469.347, 264.572 1462.005 C 205.622 1454.644, 187.556 1450.328, 179.077 1441.579 C 170.665 1432.900, 176.160 1417.946, 190.292 1411.059 C 201.563 1405.566, 207.525 1404.532, 228 1404.515 C 245.723 1404.501, 246.836 1404.618, 254.500 1407.306 C 258.900 1408.849, 265.848 1411.999, 269.940 1414.306 C 278.580 1419.177, 291.897 1431.710, 297.506 1440.250 L 301.283 1446 381.083 1446 C 424.972 1446, 461.067 1445.662, 461.293 1445.250 C 462.050 1443.866, 460.108 1427.059, 458.403 1420.245 C 449.786 1385.816, 421.973 1358.166, 378.684 1340.993 C 347.166 1328.490, 309.381 1321.467, 260.500 1319.026 C 241.576 1318.081, 234.795 1318.033, 213.500 1318.688 M 508.297 1463.750 C 508.723 1610.592, 508.524 1605.368, 514.479 1626.101 C 530.384 1681.474, 577.977 1706.844, 677.500 1713.003 C 698.349 1714.293, 749.041 1714.269, 770 1712.960 C 869.938 1706.715, 918.158 1680.541, 932.969 1624.500 C 938.478 1603.656, 938.281 1609.181, 938.703 1463.750 L 939.094 1329 870.566 1329 L 802.039 1329 801.769 1450.750 L 801.500 1572.500 799.221 1578.500 C 794.637 1590.571, 785.639 1601.106, 774 1608.031 C 746.200 1624.570, 696.623 1624.020, 670.317 1606.880 C 658.227 1599.004, 648.873 1585.610, 646.097 1572.201 C 645.337 1568.529, 645 1530.374, 645 1447.951 L 645 1329 576.453 1329 L 507.906 1329 508.297 1463.750 M 975 1376.995 L 975 1424.991 1077.587 1425.245 L 1180.175 1425.500 1082.848 1516.500 C 1029.319 1566.550, 981.625 1611.100, 976.861 1615.500 L 968.201 1623.500 968.101 1664.252 L 968 1705.005 1185.250 1704.752 L 1402.500 1704.500 1402.500 1656.500 L 1402.500 1608.500 1295.248 1608 L 1187.995 1607.500 1295.498 1508.630 L 1403 1409.760 1403 1369.380 L 1403 1329 1189 1329 L 975 1329 975 1376.995 M 1436.297 1465.250 C 1436.690 1612.110, 1436.459 1605.535, 1441.925 1625.460 C 1454.506 1671.318, 1490.374 1697.018, 1557 1707.914 C 1585.567 1712.586, 1599.741 1713.416, 1651 1713.416 C 1689.931 1713.416, 1702.756 1713.075, 1716 1711.687 C 1755.755 1707.522, 1781.520 1701.436, 1803.743 1690.959 C 1840.160 1673.790, 1858.836 1647.124, 1864.507 1604.199 C 1865.766 1594.666, 1866 1572.250, 1866 1460.949 L 1866 1329 1798 1329 L 1730 1329 1729.983 1446.750 C 1729.968 1546.697, 1729.742 1565.558, 1728.489 1571.500 C 1723.848 1593.507, 1706.667 1609.616, 1680.224 1616.753 C 1671.321 1619.156, 1668.853 1619.380, 1651 1619.409 C 1634.012 1619.437, 1630.341 1619.150, 1622.500 1617.182 C 1597.282 1610.854, 1579.859 1595.377, 1573.856 1573.972 C 1572.890 1570.531, 1572.525 1541.785, 1572.270 1449.250 L 1571.938 1329 1503.935 1329 L 1435.932 1329 1436.297 1465.250 M 1901.247 1516.750 L 1901.500 1704.500 1972.500 1704.500 L 2043.500 1704.500 2044 1638.755 L 2044.500 1573.010 2113.741 1639.005 L 2182.982 1705 2278.074 1705 C 2330.375 1705, 2373.017 1704.630, 2372.833 1704.179 C 2372.650 1703.727, 2326.375 1660.497, 2270 1608.113 C 2213.625 1555.729, 2167.500 1512.504, 2167.500 1512.057 C 2167.500 1511.610, 2214.300 1471.312, 2271.500 1422.506 C 2328.700 1373.700, 2376.615 1332.695, 2377.977 1331.384 L 2380.455 1329 2286.953 1329 L 2193.452 1329 2118.976 1393.135 L 2044.500 1457.270 2044.243 1393.135 L 2043.985 1329 1972.490 1329 L 1900.995 1329 1901.247 1516.750 M 2401 1517 L 2401 1705.013 2471.750 1704.757 L 2542.500 1704.500 2542.500 1517 L 2542.500 1329.500 2471.750 1329.243 L 2401 1328.987 2401 1517" stroke="none" fill="#045c9c" fill-rule="evenodd" /><path d="M 1267.500 25.780 C 1220.104 71.530, 1129.632 138.294, 1035.504 196.981 C 920.819 268.485, 801.736 329.999, 728.619 355.507 L 713.738 360.698 717.119 363.209 C 718.978 364.590, 755.825 390.465, 799 420.709 C 842.175 450.953, 946.800 524.288, 1031.500 583.675 C 1116.200 643.063, 1220.375 716.100, 1263 745.980 C 1305.625 775.860, 1363.980 816.767, 1392.678 836.884 L 1444.856 873.460 1429.366 883.730 C 1420.846 889.379, 1413.637 894, 1413.346 894 C 1412.828 894, 1369.840 864.563, 1239 774.609 C 1133.263 701.913, 1125.809 697.153, 1101 686.479 C 1062.199 669.784, 1026.079 662.640, 980.500 662.646 C 948.001 662.650, 921.374 665.953, 888.697 674.035 C 833.161 687.769, 771.858 714.794, 723.683 746.778 C 715.821 751.998, 714.129 753.533, 715.183 754.489 C 715.907 755.145, 750.700 779.302, 792.500 808.171 C 876.383 866.104, 1112.910 1029.691, 1211.801 1098.168 C 1246.616 1122.275, 1275.416 1142, 1275.801 1142 C 1276.185 1142, 1281.235 1137.612, 1287.023 1132.250 C 1353.365 1070.780, 1455.760 998.237, 1577 926.811 C 1623.207 899.589, 1659.746 879.736, 1708 855.632 C 1755.940 831.685, 1789.310 816.945, 1823.767 804.496 C 1836.889 799.756, 1837.893 799.219, 1836.267 797.813 C 1835.295 796.973, 1810.200 779.265, 1780.500 758.462 C 1750.800 737.660, 1713.675 711.641, 1698 700.642 C 1620.075 645.962, 1322.223 437.012, 1222.500 367.069 C 1160.350 323.478, 1109.176 287.508, 1108.779 287.135 C 1107.933 286.341, 1137.919 266.439, 1139.677 266.628 C 1140.333 266.698, 1149.337 272.592, 1159.685 279.724 C 1170.033 286.857, 1208.875 313.547, 1246 339.035 C 1283.125 364.523, 1334.200 399.589, 1359.500 416.959 C 1412.970 453.669, 1419.680 457.988, 1436.207 466.328 C 1523.603 510.437, 1627.501 508.243, 1741.606 459.879 C 1777.266 444.764, 1839.772 409.676, 1837.522 406.035 C 1837.219 405.545, 1825.390 397.146, 1811.235 387.371 C 1797.081 377.595, 1762.325 353.568, 1734 333.976 C 1680.706 297.113, 1533.438 195.272, 1440 130.664 C 1410.575 110.318, 1361.893 76.645, 1331.817 55.835 C 1301.741 35.026, 1276.766 18.013, 1276.317 18.029 C 1275.868 18.045, 1271.900 21.533, 1267.500 25.780" stroke="none" fill="#e41c34" fill-rule="evenodd" /></svg>