<svg xmlns="http://www.w3.org/2000/svg" width="590" height="585" viewBox="0 0 590 585" version="1.1"><path d="" stroke="none" fill="#303494" fill-rule="evenodd"/><path d="M 253 1.585 C 230.838 5.020, 204.054 12.673, 182.625 21.695 C 117.505 49.112, 65.922 97.610, 34.992 160.500 C 14.299 202.574, 3.983 245.525, 4.009 289.500 C 4.067 387.344, 53.250 479.314, 134 532.581 C 170.602 556.725, 208.559 571.424, 253.040 578.680 C 267.781 581.085, 272.163 581.368, 295 581.392 C 316.518 581.414, 322.842 581.064, 335.500 579.151 C 388.139 571.195, 438.394 549.507, 479 517.222 C 484.225 513.068, 495.047 503.106, 503.049 495.085 C 548.978 449.044, 578.356 387.283, 586.095 320.500 C 587.664 306.961, 587.666 275.138, 586.099 261 C 581.909 223.200, 571.984 190.315, 554.371 155.877 C 540.496 128.746, 523.304 105.062, 502.558 84.500 C 460.601 42.914, 411.693 16.877, 351 3.815 L 336.500 0.694 299.500 0.404 C 270.718 0.178, 260.390 0.440, 253 1.585 M 286 11.627 C 242.765 14.179, 206.853 23.372, 172.500 40.680 C 138.517 57.802, 113.377 76.652, 90.028 102.516 C 52.098 144.534, 28.862 194.030, 19.852 252 C 17.154 269.360, 16.667 303.680, 18.873 321 C 28.099 393.445, 62.385 457.973, 115 501.917 C 160.299 539.750, 211.771 561.494, 270.222 567.490 C 288.796 569.395, 301.653 569.397, 321.110 567.497 C 359.894 563.711, 397.940 551.852, 431.332 533.141 C 446.035 524.902, 456.060 518.330, 467.577 509.380 C 530.156 460.753, 570.095 383.837, 573.862 304.696 C 577.536 227.519, 549.412 151.971, 496.667 97.334 C 456.913 56.154, 406.194 28.391, 350 17.050 C 330.223 13.059, 302.108 10.677, 286 11.627 M 273.500 43.046 C 253.223 45.112, 228.094 50.962, 209.643 57.910 C 149.086 80.715, 102.260 123.025, 73.965 180.500 C 57.508 213.929, 49.543 245.311, 48.303 281.603 C 45.613 360.355, 80.100 435.111, 141.850 484.380 C 160.464 499.232, 190.373 515.626, 214 523.928 C 242.410 533.911, 263.653 537.440, 295.500 537.468 C 327.684 537.496, 349.957 533.751, 378.642 523.490 C 467.804 491.597, 528.822 415.279, 542.140 319 C 544.010 305.477, 543.724 273.370, 541.601 258.500 C 537.530 229.989, 530.266 206.424, 517.559 180.500 C 492.957 130.306, 457.452 94.640, 406.500 68.935 C 381.580 56.363, 356.904 48.603, 328.500 44.404 C 316.107 42.573, 285.550 41.818, 273.500 43.046 M 293.169 57.296 C 291.801 58.945, 271 117.721, 271 119.939 C 271 120.849, 272.854 123.373, 275.119 125.547 C 280.448 130.661, 282.950 136.149, 282.978 142.782 C 283.009 150.178, 281.135 153.905, 273.140 162.352 C 260.716 175.479, 257.039 185.944, 257.015 208.250 C 257.007 215.813, 256.780 222, 256.510 222 C 256.241 222, 232.997 208.719, 204.858 192.486 C 176.718 176.253, 153.462 163.205, 153.177 163.489 C 152.893 163.774, 150.075 168.393, 146.917 173.753 C 142.606 181.069, 141.463 183.774, 142.337 184.598 C 142.976 185.202, 169.037 200.430, 200.250 218.437 L 257 251.179 257 259.349 C 257 266.060, 256.688 267.708, 255.250 268.577 C 254.287 269.158, 251.002 271.049, 247.948 272.777 L 242.396 275.920 184.519 242.472 C 152.687 224.076, 126.560 209.131, 126.459 209.262 C 125.283 210.792, 115 229.367, 115 229.961 C 115 230.403, 137.387 243.708, 164.750 259.527 C 192.112 275.346, 215.088 288.828, 215.806 289.487 C 216.848 290.442, 214.828 291.981, 205.820 297.092 C 187.437 307.523, 177.565 319.105, 173.510 335 C 171.230 343.936, 167.803 349.445, 162.642 352.469 C 156.700 355.952, 150.350 356.672, 143.972 354.586 C 141.157 353.665, 137.970 353.192, 136.890 353.535 C 135.288 354.043, 95.211 399.519, 92.654 403.729 C 91.407 405.783, 93.836 409, 96.633 409 C 101.527 409, 158.513 397.806, 160.703 396.415 C 162.017 395.580, 163.191 393.498, 163.610 391.258 C 164.706 385.408, 166.556 381.771, 170.172 378.362 C 177.510 371.443, 182.983 370.597, 197.671 374.113 C 214.019 378.026, 225.943 375.648, 245 364.673 L 256.500 358.050 256.758 417.525 L 257.016 477 269.508 477 L 282 477 282 410.086 L 282 343.172 288.412 339.586 C 291.939 337.614, 295.334 336, 295.957 336 C 296.579 336, 299.994 337.671, 303.544 339.713 L 310 343.426 310 410.213 L 310 477 322.492 477 L 334.984 477 335.242 417.552 L 335.500 358.103 346.500 364.559 C 364.989 375.409, 378.290 378.092, 393.957 374.130 C 404.248 371.528, 410.244 371.463, 415.500 373.896 C 422.309 377.048, 428 384.969, 428 391.294 C 428 396.482, 430.621 397.388, 463.159 403.450 C 480.022 406.592, 494.872 409.014, 496.159 408.831 C 497.807 408.598, 498.587 407.751, 498.795 405.972 C 499.033 403.936, 495.089 398.778, 478.530 379.472 C 467.221 366.287, 457.069 354.878, 455.969 354.118 C 454.248 352.928, 453.194 352.980, 448.398 354.488 C 434.206 358.952, 422.458 351.819, 418.581 336.382 C 414.356 319.562, 405.272 308.509, 386.722 297.617 C 380.275 293.832, 375.011 290.457, 375.024 290.117 C 375.037 289.778, 397.999 276.244, 426.051 260.043 C 462.894 238.764, 476.903 230.190, 476.508 229.161 C 476.208 228.378, 473.480 223.521, 470.447 218.367 C 465.127 209.326, 464.855 209.046, 462.717 210.387 C 461.497 211.151, 435.459 226.219, 404.854 243.872 L 349.209 275.968 342.068 271.833 L 334.927 267.699 335.213 259.194 L 335.500 250.689 392.750 217.610 C 424.238 199.416, 450 184.162, 450 183.712 C 450 183.017, 439.416 164.118, 438.497 163.173 C 438.322 162.993, 415.118 176.156, 386.931 192.423 C 358.744 208.690, 335.529 222, 335.341 222 C 335.154 222, 334.992 216.262, 334.983 209.250 C 334.953 187.162, 330.805 175.116, 318.887 162.500 C 315.250 158.650, 311.576 154.134, 310.723 152.465 C 306.377 143.966, 308.165 134.039, 315.337 126.850 C 317.724 124.457, 319.956 121.724, 320.297 120.776 C 320.892 119.122, 300.784 59.915, 298.722 57.250 C 297.465 55.625, 294.536 55.649, 293.169 57.296 M 289 184.951 C 282.167 188.588, 281.542 190.929, 281.162 214.292 C 280.919 229.268, 281.155 235.482, 282.007 236.509 C 282.658 237.293, 286.071 239.545, 289.591 241.514 L 295.992 245.093 302.996 241.002 L 310 236.912 310 215.190 C 310 196.063, 309.782 193.062, 308.173 190.062 C 304.660 183.511, 296.028 181.211, 289 184.951 M 287.500 275.923 L 279.500 280.593 279.230 290.047 L 278.960 299.500 287.446 304.296 L 295.932 309.093 303.966 304.459 L 312 299.825 312 290.153 C 312 282.017, 311.722 280.311, 310.250 279.409 C 309.288 278.820, 305.575 276.744, 302 274.795 L 295.500 271.253 287.500 275.923 M 223.621 315.324 C 212.900 321.507, 204.892 326.801, 203.621 328.546 C 202.105 330.627, 201.500 332.941, 201.500 336.655 C 201.500 342.718, 203.774 346.517, 209.071 349.305 C 215.107 352.481, 218.817 351.289, 238.509 339.845 L 256.500 329.389 256.769 320.945 L 257.038 312.500 250.414 308.750 C 246.771 306.688, 243.275 305.003, 242.645 305.007 C 242.015 305.011, 233.454 309.654, 223.621 315.324 M 341.277 308.852 L 335.053 312.500 335.044 321 L 335.035 329.500 353.115 339.858 C 364.018 346.105, 372.688 350.417, 374.958 350.721 C 382.334 351.711, 388.979 346.258, 390.460 338 C 390.925 335.405, 390.494 333.355, 388.794 330.071 C 386.693 326.015, 384.988 324.773, 368.532 315.321 C 358.650 309.644, 349.875 305.046, 349.032 305.102 C 348.190 305.158, 344.700 306.846, 341.277 308.852" stroke="none" fill="#2c3494" fill-rule="evenodd"/></svg>